<mxfile host="app.diagrams.net" modified="2023-04-27T15:30:44.146Z" agent="Mozilla/5.0 (Windows NT 10.0; Win64; x64) AppleWebKit/537.36 (KHTML, like Gecko) Chrome/111.0.0.0 Safari/537.36 OPR/97.0.0.0" etag="016Y2NBkgi2R59hpfMEV" version="21.2.3" type="github">
  <diagram name="Page-1" id="PLng9I4rJ-9IpL7VwerK">
    <mxGraphModel dx="2244" dy="766" grid="1" gridSize="10" guides="1" tooltips="1" connect="1" arrows="1" fold="1" page="1" pageScale="1" pageWidth="850" pageHeight="1100" math="0" shadow="0">
      <root>
        <mxCell id="0" />
        <mxCell id="1" parent="0" />
        <mxCell id="hlcQiqIEzfI4XioGV9WH-1" value="Complex" style="rounded=0;whiteSpace=wrap;html=1;fillColor=#d5e8d4;strokeColor=#82b366;" parent="1" vertex="1">
          <mxGeometry x="97.5" y="673.75" width="70" height="30" as="geometry" />
        </mxCell>
        <mxCell id="hlcQiqIEzfI4XioGV9WH-3" value="Facility" style="rounded=0;whiteSpace=wrap;html=1;fillColor=#d5e8d4;strokeColor=#82b366;" parent="1" vertex="1">
          <mxGeometry x="370" y="438.75" width="70" height="27.5" as="geometry" />
        </mxCell>
        <mxCell id="hlcQiqIEzfI4XioGV9WH-5" value="contaions" style="rhombus;whiteSpace=wrap;html=1;fillColor=#e1d5e7;strokeColor=#9673a6;" parent="1" vertex="1">
          <mxGeometry x="240" y="592.5" width="70" height="45" as="geometry" />
        </mxCell>
        <mxCell id="hlcQiqIEzfI4XioGV9WH-12" value="" style="endArrow=none;html=1;rounded=0;exitX=1;exitY=0.5;exitDx=0;exitDy=0;" parent="1" source="hlcQiqIEzfI4XioGV9WH-1" target="hlcQiqIEzfI4XioGV9WH-5" edge="1">
          <mxGeometry width="50" height="50" relative="1" as="geometry">
            <mxPoint x="497.5" y="651.25" as="sourcePoint" />
            <mxPoint x="237.5" y="623.75" as="targetPoint" />
          </mxGeometry>
        </mxCell>
        <mxCell id="hlcQiqIEzfI4XioGV9WH-15" value="1" style="text;html=1;align=center;verticalAlign=middle;resizable=0;points=[];autosize=1;strokeColor=none;fillColor=none;" parent="1" vertex="1">
          <mxGeometry x="220" y="592.5" width="30" height="30" as="geometry" />
        </mxCell>
        <mxCell id="hlcQiqIEzfI4XioGV9WH-18" value="" style="endArrow=none;html=1;rounded=0;exitX=1;exitY=0.5;exitDx=0;exitDy=0;" parent="1" source="hlcQiqIEzfI4XioGV9WH-5" target="hlcQiqIEzfI4XioGV9WH-3" edge="1">
          <mxGeometry width="50" height="50" relative="1" as="geometry">
            <mxPoint x="255" y="310" as="sourcePoint" />
            <mxPoint x="305" y="260" as="targetPoint" />
          </mxGeometry>
        </mxCell>
        <mxCell id="hlcQiqIEzfI4XioGV9WH-19" value="m" style="text;html=1;align=center;verticalAlign=middle;resizable=0;points=[];autosize=1;strokeColor=none;fillColor=none;" parent="1" vertex="1">
          <mxGeometry x="295" y="580" width="30" height="30" as="geometry" />
        </mxCell>
        <mxCell id="hlcQiqIEzfI4XioGV9WH-25" value="m" style="text;html=1;align=center;verticalAlign=middle;resizable=0;points=[];autosize=1;strokeColor=none;fillColor=none;" parent="1" vertex="1">
          <mxGeometry x="-51.25" y="708.75" width="30" height="30" as="geometry" />
        </mxCell>
        <mxCell id="hlcQiqIEzfI4XioGV9WH-26" value="1" style="text;html=1;align=center;verticalAlign=middle;resizable=0;points=[];autosize=1;strokeColor=none;fillColor=none;" parent="1" vertex="1">
          <mxGeometry x="-17.5" y="661.25" width="30" height="30" as="geometry" />
        </mxCell>
        <mxCell id="hlcQiqIEzfI4XioGV9WH-27" value="" style="endArrow=none;html=1;rounded=0;" parent="1" source="hlcQiqIEzfI4XioGV9WH-1" target="hlcQiqIEzfI4XioGV9WH-54" edge="1">
          <mxGeometry width="50" height="50" relative="1" as="geometry">
            <mxPoint x="317.5" y="634.25" as="sourcePoint" />
            <mxPoint x="167.5" y="691.25" as="targetPoint" />
          </mxGeometry>
        </mxCell>
        <mxCell id="hlcQiqIEzfI4XioGV9WH-29" value="" style="endArrow=none;html=1;rounded=0;entryX=0.5;entryY=0;entryDx=0;entryDy=0;" parent="1" source="hlcQiqIEzfI4XioGV9WH-54" edge="1">
          <mxGeometry width="50" height="50" relative="1" as="geometry">
            <mxPoint x="-46.25" y="718.75" as="sourcePoint" />
            <mxPoint x="-46.24999999999977" y="768.75" as="targetPoint" />
          </mxGeometry>
        </mxCell>
        <mxCell id="hlcQiqIEzfI4XioGV9WH-33" value="" style="endArrow=none;html=1;rounded=0;entryX=0.533;entryY=0.019;entryDx=0;entryDy=0;entryPerimeter=0;exitX=0.53;exitY=0.984;exitDx=0;exitDy=0;exitPerimeter=0;" parent="1" edge="1">
          <mxGeometry width="50" height="50" relative="1" as="geometry">
            <mxPoint x="-43.55000000000018" y="717.79" as="sourcePoint" />
            <mxPoint x="-43.6099999999999" y="769.7" as="targetPoint" />
          </mxGeometry>
        </mxCell>
        <mxCell id="hlcQiqIEzfI4XioGV9WH-36" value="" style="rhombus;whiteSpace=wrap;html=1;fillColor=#e1d5e7;strokeColor=#9673a6;" parent="1" vertex="1">
          <mxGeometry x="360" y="525" width="100" height="75" as="geometry" />
        </mxCell>
        <mxCell id="hlcQiqIEzfI4XioGV9WH-37" value="" style="endArrow=none;html=1;rounded=0;exitX=0.468;exitY=0.979;exitDx=0;exitDy=0;exitPerimeter=0;entryX=0.532;entryY=-0.019;entryDx=0;entryDy=0;entryPerimeter=0;" parent="1" source="hlcQiqIEzfI4XioGV9WH-36" target="hlcQiqIEzfI4XioGV9WH-41" edge="1">
          <mxGeometry width="50" height="50" relative="1" as="geometry">
            <mxPoint x="404.69" y="600" as="sourcePoint" />
            <mxPoint x="405" y="680" as="targetPoint" />
          </mxGeometry>
        </mxCell>
        <mxCell id="hlcQiqIEzfI4XioGV9WH-39" value="" style="endArrow=none;html=1;rounded=0;entryX=0.589;entryY=-0.068;entryDx=0;entryDy=0;exitX=0.5;exitY=1;exitDx=0;exitDy=0;exitPerimeter=0;entryPerimeter=0;" parent="1" source="hlcQiqIEzfI4XioGV9WH-36" target="hlcQiqIEzfI4XioGV9WH-41" edge="1">
          <mxGeometry width="50" height="50" relative="1" as="geometry">
            <mxPoint x="415" y="600" as="sourcePoint" />
            <mxPoint x="414.69" y="675" as="targetPoint" />
            <Array as="points">
              <mxPoint x="410" y="680" />
            </Array>
          </mxGeometry>
        </mxCell>
        <mxCell id="hlcQiqIEzfI4XioGV9WH-41" value="" style="rounded=0;whiteSpace=wrap;html=1;fillColor=#B9C9B8;strokeColor=#82b366;" parent="1" vertex="1">
          <mxGeometry x="365" y="680" width="80" height="50" as="geometry" />
        </mxCell>
        <mxCell id="hlcQiqIEzfI4XioGV9WH-42" value="availability" style="rounded=0;whiteSpace=wrap;html=1;fillColor=#BCCCBB;strokeColor=#82b366;" parent="1" vertex="1">
          <mxGeometry x="367.5" y="685" width="75" height="40" as="geometry" />
        </mxCell>
        <mxCell id="hlcQiqIEzfI4XioGV9WH-50" value="" style="endArrow=none;html=1;rounded=0;entryX=0.484;entryY=0.07;entryDx=0;entryDy=0;entryPerimeter=0;exitX=0.56;exitY=0.935;exitDx=0;exitDy=0;exitPerimeter=0;" parent="1" source="hlcQiqIEzfI4XioGV9WH-3" target="hlcQiqIEzfI4XioGV9WH-36" edge="1">
          <mxGeometry width="50" height="50" relative="1" as="geometry">
            <mxPoint x="409" y="470" as="sourcePoint" />
            <mxPoint x="205" y="530" as="targetPoint" />
          </mxGeometry>
        </mxCell>
        <mxCell id="hlcQiqIEzfI4XioGV9WH-52" value="is scheduled" style="rhombus;whiteSpace=wrap;html=1;fillColor=#e1d5e7;strokeColor=#9673a6;" parent="1" vertex="1">
          <mxGeometry x="370" y="532.5" width="80" height="60" as="geometry" />
        </mxCell>
        <mxCell id="hlcQiqIEzfI4XioGV9WH-54" value="owns" style="rhombus;whiteSpace=wrap;html=1;fillColor=#e1d5e7;strokeColor=#9673a6;" parent="1" vertex="1">
          <mxGeometry x="-87.5" y="658.75" width="82.5" height="67.5" as="geometry" />
        </mxCell>
        <mxCell id="hlcQiqIEzfI4XioGV9WH-64" value="Sport Type" style="rounded=0;whiteSpace=wrap;html=1;fillColor=#d5e8d4;strokeColor=#82b366;" parent="1" vertex="1">
          <mxGeometry x="605" y="690" width="70" height="27.5" as="geometry" />
        </mxCell>
        <mxCell id="hlcQiqIEzfI4XioGV9WH-65" value="includes" style="rhombus;whiteSpace=wrap;html=1;fillColor=#e1d5e7;strokeColor=#9673a6;" parent="1" vertex="1">
          <mxGeometry x="510" y="617.5" width="70" height="45" as="geometry" />
        </mxCell>
        <mxCell id="hlcQiqIEzfI4XioGV9WH-66" value="" style="endArrow=none;html=1;rounded=0;exitX=1;exitY=0.75;exitDx=0;exitDy=0;entryX=0;entryY=0.5;entryDx=0;entryDy=0;" parent="1" target="hlcQiqIEzfI4XioGV9WH-65" edge="1">
          <mxGeometry width="50" height="50" relative="1" as="geometry">
            <mxPoint x="440" y="459" as="sourcePoint" />
            <mxPoint x="790" y="460" as="targetPoint" />
          </mxGeometry>
        </mxCell>
        <mxCell id="hlcQiqIEzfI4XioGV9WH-67" value="m" style="text;html=1;align=center;verticalAlign=middle;resizable=0;points=[];autosize=1;strokeColor=none;fillColor=none;" parent="1" vertex="1">
          <mxGeometry x="500" y="605" width="30" height="30" as="geometry" />
        </mxCell>
        <mxCell id="hlcQiqIEzfI4XioGV9WH-68" value="" style="endArrow=none;html=1;rounded=0;exitX=1;exitY=0.5;exitDx=0;exitDy=0;entryX=0;entryY=0.5;entryDx=0;entryDy=0;" parent="1" source="hlcQiqIEzfI4XioGV9WH-65" target="hlcQiqIEzfI4XioGV9WH-64" edge="1">
          <mxGeometry width="50" height="50" relative="1" as="geometry">
            <mxPoint x="500" y="497.5" as="sourcePoint" />
            <mxPoint x="550" y="447.5" as="targetPoint" />
          </mxGeometry>
        </mxCell>
        <mxCell id="hlcQiqIEzfI4XioGV9WH-69" value="m" style="text;html=1;align=center;verticalAlign=middle;resizable=0;points=[];autosize=1;strokeColor=none;fillColor=none;" parent="1" vertex="1">
          <mxGeometry x="580" y="620" width="30" height="30" as="geometry" />
        </mxCell>
        <mxCell id="hlcQiqIEzfI4XioGV9WH-70" value="Amenities" style="rounded=0;whiteSpace=wrap;html=1;fillColor=#d5e8d4;strokeColor=#82b366;" parent="1" vertex="1">
          <mxGeometry x="720" y="580" width="70" height="27.5" as="geometry" />
        </mxCell>
        <mxCell id="hlcQiqIEzfI4XioGV9WH-71" value="has" style="rhombus;whiteSpace=wrap;html=1;fillColor=#e1d5e7;strokeColor=#9673a6;" parent="1" vertex="1">
          <mxGeometry x="582.5" y="567.5" width="70" height="52.5" as="geometry" />
        </mxCell>
        <mxCell id="hlcQiqIEzfI4XioGV9WH-72" value="" style="endArrow=none;html=1;rounded=0;entryX=0;entryY=0.5;entryDx=0;entryDy=0;exitX=1;exitY=0.5;exitDx=0;exitDy=0;" parent="1" source="hlcQiqIEzfI4XioGV9WH-3" target="hlcQiqIEzfI4XioGV9WH-71" edge="1">
          <mxGeometry width="50" height="50" relative="1" as="geometry">
            <mxPoint x="420" y="535.0903614457832" as="sourcePoint" />
            <mxPoint x="872.5" y="392.5" as="targetPoint" />
          </mxGeometry>
        </mxCell>
        <mxCell id="hlcQiqIEzfI4XioGV9WH-73" value="m" style="text;html=1;align=center;verticalAlign=middle;resizable=0;points=[];autosize=1;strokeColor=none;fillColor=none;" parent="1" vertex="1">
          <mxGeometry x="575" y="560" width="30" height="30" as="geometry" />
        </mxCell>
        <mxCell id="hlcQiqIEzfI4XioGV9WH-74" value="" style="endArrow=none;html=1;rounded=0;exitX=1;exitY=0.5;exitDx=0;exitDy=0;entryX=0;entryY=0.5;entryDx=0;entryDy=0;" parent="1" source="hlcQiqIEzfI4XioGV9WH-71" target="hlcQiqIEzfI4XioGV9WH-70" edge="1">
          <mxGeometry width="50" height="50" relative="1" as="geometry">
            <mxPoint x="582.5" y="430" as="sourcePoint" />
            <mxPoint x="632.5" y="380" as="targetPoint" />
          </mxGeometry>
        </mxCell>
        <mxCell id="hlcQiqIEzfI4XioGV9WH-75" value="m" style="text;html=1;align=center;verticalAlign=middle;resizable=0;points=[];autosize=1;strokeColor=none;fillColor=none;" parent="1" vertex="1">
          <mxGeometry x="645" y="570" width="30" height="30" as="geometry" />
        </mxCell>
        <mxCell id="hlcQiqIEzfI4XioGV9WH-76" value="Event" style="rounded=0;whiteSpace=wrap;html=1;fillColor=#d5e8d4;strokeColor=#82b366;" parent="1" vertex="1">
          <mxGeometry x="610" y="467.5" width="70" height="27.5" as="geometry" />
        </mxCell>
        <mxCell id="hlcQiqIEzfI4XioGV9WH-77" value="hosts" style="rhombus;whiteSpace=wrap;html=1;fillColor=#e1d5e7;strokeColor=#9673a6;" parent="1" vertex="1">
          <mxGeometry x="500" y="470" width="70" height="45" as="geometry" />
        </mxCell>
        <mxCell id="hlcQiqIEzfI4XioGV9WH-78" value="" style="endArrow=none;html=1;rounded=0;exitX=1;exitY=0.5;exitDx=0;exitDy=0;entryX=0;entryY=0.5;entryDx=0;entryDy=0;" parent="1" source="hlcQiqIEzfI4XioGV9WH-3" target="hlcQiqIEzfI4XioGV9WH-77" edge="1">
          <mxGeometry width="50" height="50" relative="1" as="geometry">
            <mxPoint x="425" y="521.5" as="sourcePoint" />
            <mxPoint x="815" y="280" as="targetPoint" />
          </mxGeometry>
        </mxCell>
        <mxCell id="hlcQiqIEzfI4XioGV9WH-79" value="1" style="text;html=1;align=center;verticalAlign=middle;resizable=0;points=[];autosize=1;strokeColor=none;fillColor=none;" parent="1" vertex="1">
          <mxGeometry x="490" y="466.25" width="30" height="30" as="geometry" />
        </mxCell>
        <mxCell id="hlcQiqIEzfI4XioGV9WH-80" value="" style="endArrow=none;html=1;rounded=0;exitX=1;exitY=0.5;exitDx=0;exitDy=0;entryX=0;entryY=0.5;entryDx=0;entryDy=0;" parent="1" source="hlcQiqIEzfI4XioGV9WH-77" target="hlcQiqIEzfI4XioGV9WH-76" edge="1">
          <mxGeometry width="50" height="50" relative="1" as="geometry">
            <mxPoint x="525" y="317.5" as="sourcePoint" />
            <mxPoint x="575" y="267.5" as="targetPoint" />
          </mxGeometry>
        </mxCell>
        <mxCell id="hlcQiqIEzfI4XioGV9WH-81" value="m" style="text;html=1;align=center;verticalAlign=middle;resizable=0;points=[];autosize=1;strokeColor=none;fillColor=none;" parent="1" vertex="1">
          <mxGeometry x="552.5" y="490" width="30" height="30" as="geometry" />
        </mxCell>
        <mxCell id="hlcQiqIEzfI4XioGV9WH-83" value="Sponsor" style="rounded=0;whiteSpace=wrap;html=1;fillColor=#d5e8d4;strokeColor=#82b366;" parent="1" vertex="1">
          <mxGeometry x="730" y="333.75" width="70" height="27.5" as="geometry" />
        </mxCell>
        <mxCell id="hlcQiqIEzfI4XioGV9WH-84" value="finances" style="rhombus;whiteSpace=wrap;html=1;fillColor=#e1d5e7;strokeColor=#9673a6;" parent="1" vertex="1">
          <mxGeometry x="730" y="458.75" width="70" height="45" as="geometry" />
        </mxCell>
        <mxCell id="hlcQiqIEzfI4XioGV9WH-85" value="" style="endArrow=none;html=1;rounded=0;exitX=1;exitY=0.5;exitDx=0;exitDy=0;entryX=0;entryY=0.5;entryDx=0;entryDy=0;" parent="1" source="hlcQiqIEzfI4XioGV9WH-76" target="hlcQiqIEzfI4XioGV9WH-84" edge="1">
          <mxGeometry width="50" height="50" relative="1" as="geometry">
            <mxPoint x="595" y="562.5" as="sourcePoint" />
            <mxPoint x="1000" y="358.75" as="targetPoint" />
          </mxGeometry>
        </mxCell>
        <mxCell id="hlcQiqIEzfI4XioGV9WH-86" value="m" style="text;html=1;align=center;verticalAlign=middle;resizable=0;points=[];autosize=1;strokeColor=none;fillColor=none;" parent="1" vertex="1">
          <mxGeometry x="710" y="453.75" width="30" height="30" as="geometry" />
        </mxCell>
        <mxCell id="hlcQiqIEzfI4XioGV9WH-87" value="" style="endArrow=none;html=1;rounded=0;" parent="1" source="hlcQiqIEzfI4XioGV9WH-84" target="hlcQiqIEzfI4XioGV9WH-83" edge="1">
          <mxGeometry width="50" height="50" relative="1" as="geometry">
            <mxPoint x="742.5" y="396.25" as="sourcePoint" />
            <mxPoint x="792.5" y="346.25" as="targetPoint" />
          </mxGeometry>
        </mxCell>
        <mxCell id="hlcQiqIEzfI4XioGV9WH-88" value="1" style="text;html=1;align=center;verticalAlign=middle;resizable=0;points=[];autosize=1;strokeColor=none;fillColor=none;" parent="1" vertex="1">
          <mxGeometry x="762.5" y="436.25" width="30" height="30" as="geometry" />
        </mxCell>
        <mxCell id="hlcQiqIEzfI4XioGV9WH-89" value="staff" style="rounded=0;whiteSpace=wrap;html=1;fillColor=#d5e8d4;strokeColor=#82b366;" parent="1" vertex="1">
          <mxGeometry x="135" y="541.25" width="70" height="27.5" as="geometry" />
        </mxCell>
        <mxCell id="hlcQiqIEzfI4XioGV9WH-90" value="works at" style="rhombus;whiteSpace=wrap;html=1;fillColor=#e1d5e7;strokeColor=#9673a6;" parent="1" vertex="1">
          <mxGeometry x="250" y="493.25" width="70" height="45" as="geometry" />
        </mxCell>
        <mxCell id="hlcQiqIEzfI4XioGV9WH-91" value="" style="endArrow=none;html=1;rounded=0;exitX=0;exitY=1;exitDx=0;exitDy=0;entryX=1;entryY=0.5;entryDx=0;entryDy=0;" parent="1" source="hlcQiqIEzfI4XioGV9WH-3" target="hlcQiqIEzfI4XioGV9WH-90" edge="1">
          <mxGeometry width="50" height="50" relative="1" as="geometry">
            <mxPoint x="90" y="226.5" as="sourcePoint" />
            <mxPoint x="440" y="227.5" as="targetPoint" />
          </mxGeometry>
        </mxCell>
        <mxCell id="hlcQiqIEzfI4XioGV9WH-92" value="m" style="text;html=1;align=center;verticalAlign=middle;resizable=0;points=[];autosize=1;strokeColor=none;fillColor=none;" parent="1" vertex="1">
          <mxGeometry x="230" y="508.25" width="30" height="30" as="geometry" />
        </mxCell>
        <mxCell id="hlcQiqIEzfI4XioGV9WH-94" value="1" style="text;html=1;align=center;verticalAlign=middle;resizable=0;points=[];autosize=1;strokeColor=none;fillColor=none;" parent="1" vertex="1">
          <mxGeometry x="300" y="486.25" width="30" height="30" as="geometry" />
        </mxCell>
        <mxCell id="hlcQiqIEzfI4XioGV9WH-95" value="" style="endArrow=none;html=1;rounded=0;entryX=1;entryY=0.5;entryDx=0;entryDy=0;" parent="1" source="hlcQiqIEzfI4XioGV9WH-90" target="hlcQiqIEzfI4XioGV9WH-89" edge="1">
          <mxGeometry width="50" height="50" relative="1" as="geometry">
            <mxPoint x="232.5" y="513.25" as="sourcePoint" />
            <mxPoint x="107.5" y="502" as="targetPoint" />
          </mxGeometry>
        </mxCell>
        <mxCell id="hlcQiqIEzfI4XioGV9WH-98" value="held at" style="rhombus;whiteSpace=wrap;html=1;fillColor=#e1d5e7;strokeColor=#9673a6;" parent="1" vertex="1">
          <mxGeometry x="220" y="360" width="70" height="45" as="geometry" />
        </mxCell>
        <mxCell id="hlcQiqIEzfI4XioGV9WH-99" value="" style="endArrow=none;html=1;rounded=0;exitX=0;exitY=0.75;exitDx=0;exitDy=0;entryX=1;entryY=0.5;entryDx=0;entryDy=0;" parent="1" source="hlcQiqIEzfI4XioGV9WH-3" target="hlcQiqIEzfI4XioGV9WH-98" edge="1">
          <mxGeometry width="50" height="50" relative="1" as="geometry">
            <mxPoint x="370" y="399.75" as="sourcePoint" />
            <mxPoint x="440" y="161.25" as="targetPoint" />
          </mxGeometry>
        </mxCell>
        <mxCell id="hlcQiqIEzfI4XioGV9WH-100" value="m" style="text;html=1;align=center;verticalAlign=middle;resizable=0;points=[];autosize=1;strokeColor=none;fillColor=none;" parent="1" vertex="1">
          <mxGeometry x="205" y="360" width="30" height="30" as="geometry" />
        </mxCell>
        <mxCell id="hlcQiqIEzfI4XioGV9WH-101" value="1" style="text;html=1;align=center;verticalAlign=middle;resizable=0;points=[];autosize=1;strokeColor=none;fillColor=none;" parent="1" vertex="1">
          <mxGeometry x="275" y="380" width="30" height="30" as="geometry" />
        </mxCell>
        <mxCell id="hlcQiqIEzfI4XioGV9WH-102" value="" style="endArrow=none;html=1;rounded=0;exitX=0.078;exitY=0.512;exitDx=0;exitDy=0;exitPerimeter=0;entryX=0.994;entryY=0.559;entryDx=0;entryDy=0;entryPerimeter=0;" parent="1" source="hlcQiqIEzfI4XioGV9WH-112" edge="1">
          <mxGeometry width="50" height="50" relative="1" as="geometry">
            <mxPoint x="150" y="198.75" as="sourcePoint" />
            <mxPoint x="169.51999999999998" y="382.3599999999999" as="targetPoint" />
          </mxGeometry>
        </mxCell>
        <mxCell id="hlcQiqIEzfI4XioGV9WH-104" value="works at" style="rhombus;whiteSpace=wrap;html=1;fillColor=#e1d5e7;strokeColor=#9673a6;" parent="1" vertex="1">
          <mxGeometry x="-35" y="382.5" width="70" height="45" as="geometry" />
        </mxCell>
        <mxCell id="hlcQiqIEzfI4XioGV9WH-105" value="" style="endArrow=none;html=1;rounded=0;exitX=0;exitY=0.5;exitDx=0;exitDy=0;entryX=0.921;entryY=0.546;entryDx=0;entryDy=0;entryPerimeter=0;" parent="1" target="hlcQiqIEzfI4XioGV9WH-104" edge="1">
          <mxGeometry width="50" height="50" relative="1" as="geometry">
            <mxPoint x="90" y="380" as="sourcePoint" />
            <mxPoint x="315" y="31.25" as="targetPoint" />
          </mxGeometry>
        </mxCell>
        <mxCell id="hlcQiqIEzfI4XioGV9WH-108" value="" style="endArrow=none;html=1;rounded=0;exitX=0;exitY=0.5;exitDx=0;exitDy=0;entryX=0.5;entryY=0;entryDx=0;entryDy=0;" parent="1" source="hlcQiqIEzfI4XioGV9WH-126" edge="1">
          <mxGeometry width="50" height="50" relative="1" as="geometry">
            <mxPoint x="25" y="68.75" as="sourcePoint" />
            <mxPoint x="-75" y="456.25" as="targetPoint" />
          </mxGeometry>
        </mxCell>
        <mxCell id="hlcQiqIEzfI4XioGV9WH-111" value="" style="endArrow=none;html=1;rounded=0;entryX=0.984;entryY=0.617;entryDx=0;entryDy=0;entryPerimeter=0;exitX=0.938;exitY=0.585;exitDx=0;exitDy=0;exitPerimeter=0;" parent="1" source="hlcQiqIEzfI4XioGV9WH-112" edge="1">
          <mxGeometry width="50" height="50" relative="1" as="geometry">
            <mxPoint x="230" y="390" as="sourcePoint" />
            <mxPoint x="168.7199999999998" y="384.67999999999995" as="targetPoint" />
          </mxGeometry>
        </mxCell>
        <mxCell id="hlcQiqIEzfI4XioGV9WH-112" value="held at" style="rhombus;whiteSpace=wrap;html=1;fillColor=#e1d5e7;strokeColor=#9673a6;" parent="1" vertex="1">
          <mxGeometry x="220" y="360" width="70" height="45" as="geometry" />
        </mxCell>
        <mxCell id="hlcQiqIEzfI4XioGV9WH-123" value="" style="endArrow=none;html=1;rounded=0;exitX=0.029;exitY=0.4;exitDx=0;exitDy=0;entryX=0.924;entryY=0.46;entryDx=0;entryDy=0;entryPerimeter=0;exitPerimeter=0;" parent="1" target="hlcQiqIEzfI4XioGV9WH-104" edge="1">
          <mxGeometry width="50" height="50" relative="1" as="geometry">
            <mxPoint x="92.32000000000016" y="375.9999999999999" as="sourcePoint" />
            <mxPoint x="30" y="360" as="targetPoint" />
          </mxGeometry>
        </mxCell>
        <mxCell id="hlcQiqIEzfI4XioGV9WH-126" value="works at" style="rhombus;whiteSpace=wrap;html=1;fillColor=#e1d5e7;strokeColor=#9673a6;" parent="1" vertex="1">
          <mxGeometry x="-35" y="382.5" width="70" height="45" as="geometry" />
        </mxCell>
        <mxCell id="hlcQiqIEzfI4XioGV9WH-127" value="is a" style="rhombus;whiteSpace=wrap;html=1;fillColor=#e1d5e7;strokeColor=#9673a6;" parent="1" vertex="1">
          <mxGeometry x="7.5" y="529.25" width="70" height="45" as="geometry" />
        </mxCell>
        <mxCell id="hlcQiqIEzfI4XioGV9WH-133" value="1" style="text;html=1;align=center;verticalAlign=middle;resizable=0;points=[];autosize=1;strokeColor=none;fillColor=none;" parent="1" vertex="1">
          <mxGeometry x="-45" y="407.5" width="30" height="30" as="geometry" />
        </mxCell>
        <mxCell id="hlcQiqIEzfI4XioGV9WH-135" value="m" style="text;html=1;align=center;verticalAlign=middle;resizable=0;points=[];autosize=1;strokeColor=none;fillColor=none;" parent="1" vertex="1">
          <mxGeometry x="15" y="377.5" width="30" height="30" as="geometry" />
        </mxCell>
        <mxCell id="hlcQiqIEzfI4XioGV9WH-136" value="1" style="text;html=1;align=center;verticalAlign=middle;resizable=0;points=[];autosize=1;strokeColor=none;fillColor=none;" parent="1" vertex="1">
          <mxGeometry x="75" y="555" width="30" height="30" as="geometry" />
        </mxCell>
        <mxCell id="hlcQiqIEzfI4XioGV9WH-137" value="m" style="text;html=1;align=center;verticalAlign=middle;resizable=0;points=[];autosize=1;strokeColor=none;fillColor=none;" parent="1" vertex="1">
          <mxGeometry x="5" y="511.25" width="30" height="30" as="geometry" />
        </mxCell>
        <mxCell id="hlcQiqIEzfI4XioGV9WH-138" value="" style="endArrow=none;html=1;rounded=0;exitX=0.625;exitY=0.706;exitDx=0;exitDy=0;entryX=0.586;entryY=1.049;entryDx=0;entryDy=0;entryPerimeter=0;exitPerimeter=0;" parent="1" source="hlcQiqIEzfI4XioGV9WH-147" edge="1">
          <mxGeometry width="50" height="50" relative="1" as="geometry">
            <mxPoint x="-20" y="398" as="sourcePoint" />
            <mxPoint x="-68.98000000000002" y="485.09749999999985" as="targetPoint" />
          </mxGeometry>
        </mxCell>
        <mxCell id="hlcQiqIEzfI4XioGV9WH-139" value="" style="endArrow=none;html=1;rounded=0;exitX=0;exitY=0.75;exitDx=0;exitDy=0;" parent="1" source="hlcQiqIEzfI4XioGV9WH-89" target="hlcQiqIEzfI4XioGV9WH-147" edge="1">
          <mxGeometry width="50" height="50" relative="1" as="geometry">
            <mxPoint x="35" y="594.25" as="sourcePoint" />
            <mxPoint x="-14" y="566.25" as="targetPoint" />
          </mxGeometry>
        </mxCell>
        <mxCell id="hlcQiqIEzfI4XioGV9WH-140" value="Social media" style="rounded=0;whiteSpace=wrap;html=1;fillColor=#d5e8d4;strokeColor=#82b366;" parent="1" vertex="1">
          <mxGeometry x="-81.25" y="768.75" width="70" height="30" as="geometry" />
        </mxCell>
        <mxCell id="hlcQiqIEzfI4XioGV9WH-143" value="Courses" style="rounded=0;whiteSpace=wrap;html=1;fillColor=#B8C9B8;strokeColor=#688F52;" parent="1" vertex="1">
          <mxGeometry x="-120" y="450" width="80" height="40" as="geometry" />
        </mxCell>
        <mxCell id="hlcQiqIEzfI4XioGV9WH-144" value="Coach" style="rounded=0;whiteSpace=wrap;html=1;fillColor=#B8C9B8;strokeColor=#688F52;" parent="1" vertex="1">
          <mxGeometry x="-115" y="455" width="70" height="30" as="geometry" />
        </mxCell>
        <mxCell id="hlcQiqIEzfI4XioGV9WH-145" value="Course" style="rounded=0;whiteSpace=wrap;html=1;fillColor=#d5e8d4;strokeColor=#82b366;" parent="1" vertex="1">
          <mxGeometry x="90" y="365" width="80" height="35" as="geometry" />
        </mxCell>
        <mxCell id="hlcQiqIEzfI4XioGV9WH-146" value="" style="endArrow=none;html=1;rounded=0;entryX=0.79;entryY=0.969;entryDx=0;entryDy=0;entryPerimeter=0;" parent="1" source="hlcQiqIEzfI4XioGV9WH-127" target="hlcQiqIEzfI4XioGV9WH-143" edge="1">
          <mxGeometry width="50" height="50" relative="1" as="geometry">
            <mxPoint x="-10" y="520" as="sourcePoint" />
            <mxPoint x="-55" y="490" as="targetPoint" />
          </mxGeometry>
        </mxCell>
        <mxCell id="hlcQiqIEzfI4XioGV9WH-147" value="is a" style="rhombus;whiteSpace=wrap;html=1;fillColor=#e1d5e7;strokeColor=#9673a6;" parent="1" vertex="1">
          <mxGeometry x="12.5" y="531.75" width="60" height="40" as="geometry" />
        </mxCell>
        <mxCell id="hlcQiqIEzfI4XioGV9WH-148" value="held at" style="rhombus;whiteSpace=wrap;html=1;fillColor=#e1d5e7;strokeColor=#9673a6;" parent="1" vertex="1">
          <mxGeometry x="275" y="291" width="70" height="45" as="geometry" />
        </mxCell>
        <mxCell id="hlcQiqIEzfI4XioGV9WH-149" value="" style="endArrow=none;html=1;rounded=0;exitX=0.114;exitY=0.045;exitDx=0;exitDy=0;entryX=1;entryY=0.5;entryDx=0;entryDy=0;exitPerimeter=0;" parent="1" source="hlcQiqIEzfI4XioGV9WH-3" target="hlcQiqIEzfI4XioGV9WH-148" edge="1">
          <mxGeometry width="50" height="50" relative="1" as="geometry">
            <mxPoint x="425" y="390" as="sourcePoint" />
            <mxPoint x="495" y="92.25" as="targetPoint" />
          </mxGeometry>
        </mxCell>
        <mxCell id="hlcQiqIEzfI4XioGV9WH-150" value="m" style="text;html=1;align=center;verticalAlign=middle;resizable=0;points=[];autosize=1;strokeColor=none;fillColor=none;" parent="1" vertex="1">
          <mxGeometry x="260" y="291" width="30" height="30" as="geometry" />
        </mxCell>
        <mxCell id="hlcQiqIEzfI4XioGV9WH-151" value="1" style="text;html=1;align=center;verticalAlign=middle;resizable=0;points=[];autosize=1;strokeColor=none;fillColor=none;" parent="1" vertex="1">
          <mxGeometry x="325" y="311" width="30" height="30" as="geometry" />
        </mxCell>
        <mxCell id="hlcQiqIEzfI4XioGV9WH-152" value="" style="endArrow=none;html=1;rounded=0;exitX=0.218;exitY=0.681;exitDx=0;exitDy=0;exitPerimeter=0;entryX=0.563;entryY=0;entryDx=0;entryDy=0;entryPerimeter=0;" parent="1" source="hlcQiqIEzfI4XioGV9WH-154" target="hlcQiqIEzfI4XioGV9WH-155" edge="1">
          <mxGeometry width="50" height="50" relative="1" as="geometry">
            <mxPoint x="205" y="129.75" as="sourcePoint" />
            <mxPoint x="224.51999999999998" y="313.3599999999999" as="targetPoint" />
          </mxGeometry>
        </mxCell>
        <mxCell id="hlcQiqIEzfI4XioGV9WH-153" value="" style="endArrow=none;html=1;rounded=0;entryX=0.903;entryY=0.96;entryDx=0;entryDy=0;entryPerimeter=0;exitX=1.031;exitY=0.892;exitDx=0;exitDy=0;exitPerimeter=0;" parent="1" source="hlcQiqIEzfI4XioGV9WH-150" target="hlcQiqIEzfI4XioGV9WH-155" edge="1">
          <mxGeometry width="50" height="50" relative="1" as="geometry">
            <mxPoint x="285" y="321" as="sourcePoint" />
            <mxPoint x="223.7199999999998" y="315.67999999999995" as="targetPoint" />
          </mxGeometry>
        </mxCell>
        <mxCell id="hlcQiqIEzfI4XioGV9WH-154" value="held at" style="rhombus;whiteSpace=wrap;html=1;fillColor=#e1d5e7;strokeColor=#9673a6;" parent="1" vertex="1">
          <mxGeometry x="275" y="291" width="70" height="45" as="geometry" />
        </mxCell>
        <mxCell id="hlcQiqIEzfI4XioGV9WH-155" value="Member" style="rounded=0;whiteSpace=wrap;html=1;fillColor=#d5e8d4;strokeColor=#82b366;" parent="1" vertex="1">
          <mxGeometry x="185" y="240" width="80" height="35" as="geometry" />
        </mxCell>
        <mxCell id="hlcQiqIEzfI4XioGV9WH-157" value="held at" style="rhombus;whiteSpace=wrap;html=1;fillColor=#e1d5e7;strokeColor=#9673a6;" parent="1" vertex="1">
          <mxGeometry x="60" y="242" width="70" height="45" as="geometry" />
        </mxCell>
        <mxCell id="hlcQiqIEzfI4XioGV9WH-158" value="" style="endArrow=none;html=1;rounded=0;exitX=0.813;exitY=0.75;exitDx=0;exitDy=0;entryX=1;entryY=0.5;entryDx=0;entryDy=0;exitPerimeter=0;" parent="1" source="hlcQiqIEzfI4XioGV9WH-155" target="hlcQiqIEzfI4XioGV9WH-157" edge="1">
          <mxGeometry width="50" height="50" relative="1" as="geometry">
            <mxPoint x="210" y="341" as="sourcePoint" />
            <mxPoint x="280" y="43.25" as="targetPoint" />
          </mxGeometry>
        </mxCell>
        <mxCell id="hlcQiqIEzfI4XioGV9WH-160" value="m" style="text;html=1;align=center;verticalAlign=middle;resizable=0;points=[];autosize=1;strokeColor=none;fillColor=none;" parent="1" vertex="1">
          <mxGeometry x="90" y="275" width="30" height="30" as="geometry" />
        </mxCell>
        <mxCell id="hlcQiqIEzfI4XioGV9WH-162" value="" style="endArrow=none;html=1;rounded=0;exitX=0.5;exitY=1;exitDx=0;exitDy=0;entryX=0.063;entryY=0.714;entryDx=0;entryDy=0;entryPerimeter=0;" parent="1" source="hlcQiqIEzfI4XioGV9WH-163" target="hlcQiqIEzfI4XioGV9WH-145" edge="1">
          <mxGeometry width="50" height="50" relative="1" as="geometry">
            <mxPoint x="70.93000000000006" y="307.7600000000001" as="sourcePoint" />
            <mxPoint x="90" y="360" as="targetPoint" />
          </mxGeometry>
        </mxCell>
        <mxCell id="hlcQiqIEzfI4XioGV9WH-163" value="enrolls" style="rhombus;whiteSpace=wrap;html=1;fillColor=#e1d5e7;strokeColor=#9673a6;" parent="1" vertex="1">
          <mxGeometry x="60" y="242" width="70" height="45" as="geometry" />
        </mxCell>
        <mxCell id="hlcQiqIEzfI4XioGV9WH-173" value="Course" style="rounded=0;whiteSpace=wrap;html=1;fillColor=#d5e8d4;strokeColor=#82b366;" parent="1" vertex="1">
          <mxGeometry x="90" y="365" width="80" height="35" as="geometry" />
        </mxCell>
        <mxCell id="hlcQiqIEzfI4XioGV9WH-174" value="m" style="text;html=1;align=center;verticalAlign=middle;resizable=0;points=[];autosize=1;strokeColor=none;fillColor=none;" parent="1" vertex="1">
          <mxGeometry x="120" y="261" width="30" height="30" as="geometry" />
        </mxCell>
        <mxCell id="hlcQiqIEzfI4XioGV9WH-175" value="Member" style="rounded=0;whiteSpace=wrap;html=1;fillColor=#d5e8d4;strokeColor=#82b366;" parent="1" vertex="1">
          <mxGeometry x="185" y="240" width="80" height="35" as="geometry" />
        </mxCell>
        <mxCell id="hlcQiqIEzfI4XioGV9WH-176" value="Membership Type" style="rounded=0;whiteSpace=wrap;html=1;fillColor=#d5e8d4;strokeColor=#82b366;" parent="1" vertex="1">
          <mxGeometry x="420" y="220" width="80" height="35" as="geometry" />
        </mxCell>
        <mxCell id="hlcQiqIEzfI4XioGV9WH-177" value="owns" style="rhombus;whiteSpace=wrap;html=1;fillColor=#e1d5e7;strokeColor=#9673a6;" parent="1" vertex="1">
          <mxGeometry x="310" y="215" width="70" height="45" as="geometry" />
        </mxCell>
        <mxCell id="hlcQiqIEzfI4XioGV9WH-179" value="" style="endArrow=none;html=1;rounded=0;entryX=0;entryY=0.5;entryDx=0;entryDy=0;" parent="1" source="hlcQiqIEzfI4XioGV9WH-175" target="hlcQiqIEzfI4XioGV9WH-177" edge="1">
          <mxGeometry width="50" height="50" relative="1" as="geometry">
            <mxPoint x="170" y="350" as="sourcePoint" />
            <mxPoint x="120" y="400" as="targetPoint" />
          </mxGeometry>
        </mxCell>
        <mxCell id="hlcQiqIEzfI4XioGV9WH-180" value="1" style="text;html=1;align=center;verticalAlign=middle;resizable=0;points=[];autosize=1;strokeColor=none;fillColor=none;" parent="1" vertex="1">
          <mxGeometry x="360" y="210" width="30" height="30" as="geometry" />
        </mxCell>
        <mxCell id="hlcQiqIEzfI4XioGV9WH-181" value="m" style="text;html=1;align=center;verticalAlign=middle;resizable=0;points=[];autosize=1;strokeColor=none;fillColor=none;" parent="1" vertex="1">
          <mxGeometry x="295" y="210" width="30" height="30" as="geometry" />
        </mxCell>
        <mxCell id="hlcQiqIEzfI4XioGV9WH-182" value="" style="endArrow=none;html=1;rounded=0;entryX=0;entryY=0.5;entryDx=0;entryDy=0;exitX=0.947;exitY=0.521;exitDx=0;exitDy=0;exitPerimeter=0;" parent="1" source="hlcQiqIEzfI4XioGV9WH-177" target="hlcQiqIEzfI4XioGV9WH-176" edge="1">
          <mxGeometry width="50" height="50" relative="1" as="geometry">
            <mxPoint x="275" y="258" as="sourcePoint" />
            <mxPoint x="320" y="248" as="targetPoint" />
          </mxGeometry>
        </mxCell>
        <mxCell id="LpjfnR9nURVxCJBzHhJD-1" value="Facility_ID" style="ellipse;whiteSpace=wrap;html=1;fillColor=#FF0000;strokeColor=#B85450;fontStyle=5" parent="1" vertex="1">
          <mxGeometry x="367.5" y="296" width="60" height="30" as="geometry" />
        </mxCell>
        <mxCell id="LpjfnR9nURVxCJBzHhJD-7" value="Facility Name" style="ellipse;whiteSpace=wrap;html=1;fillColor=#f8cecc;strokeColor=#b85450;fontStyle=0" parent="1" vertex="1">
          <mxGeometry x="440" y="291" width="60" height="35" as="geometry" />
        </mxCell>
        <mxCell id="LpjfnR9nURVxCJBzHhJD-9" value="" style="endArrow=none;html=1;rounded=0;entryX=0.5;entryY=1;entryDx=0;entryDy=0;exitX=0.25;exitY=0;exitDx=0;exitDy=0;" parent="1" source="hlcQiqIEzfI4XioGV9WH-3" target="LpjfnR9nURVxCJBzHhJD-1" edge="1">
          <mxGeometry width="50" height="50" relative="1" as="geometry">
            <mxPoint x="300" y="570" as="sourcePoint" />
            <mxPoint x="350" y="520" as="targetPoint" />
          </mxGeometry>
        </mxCell>
        <mxCell id="LpjfnR9nURVxCJBzHhJD-10" value="" style="endArrow=none;html=1;rounded=0;entryX=0;entryY=1;entryDx=0;entryDy=0;exitX=0.4;exitY=-0.064;exitDx=0;exitDy=0;exitPerimeter=0;" parent="1" source="hlcQiqIEzfI4XioGV9WH-3" target="LpjfnR9nURVxCJBzHhJD-7" edge="1">
          <mxGeometry width="50" height="50" relative="1" as="geometry">
            <mxPoint x="406.5" y="429.5" as="sourcePoint" />
            <mxPoint x="413.5" y="380.5" as="targetPoint" />
          </mxGeometry>
        </mxCell>
        <mxCell id="LpjfnR9nURVxCJBzHhJD-11" value="" style="endArrow=none;html=1;rounded=0;entryX=0;entryY=1;entryDx=0;entryDy=0;exitX=0.6;exitY=0.045;exitDx=0;exitDy=0;exitPerimeter=0;" parent="1" source="hlcQiqIEzfI4XioGV9WH-3" target="LpjfnR9nURVxCJBzHhJD-12" edge="1">
          <mxGeometry width="50" height="50" relative="1" as="geometry">
            <mxPoint x="408" y="447" as="sourcePoint" />
            <mxPoint x="448" y="365" as="targetPoint" />
          </mxGeometry>
        </mxCell>
        <mxCell id="LpjfnR9nURVxCJBzHhJD-12" value="Capacity" style="ellipse;whiteSpace=wrap;html=1;fillColor=#f8cecc;strokeColor=#b85450;fontStyle=0" parent="1" vertex="1">
          <mxGeometry x="505" y="296" width="60" height="35" as="geometry" />
        </mxCell>
        <mxCell id="LpjfnR9nURVxCJBzHhJD-13" value="Maintenance Schedule" style="ellipse;whiteSpace=wrap;html=1;fillColor=#f8cecc;strokeColor=#b85450;fontStyle=0" parent="1" vertex="1">
          <mxGeometry x="537.5" y="330" width="82.5" height="40" as="geometry" />
        </mxCell>
        <mxCell id="LpjfnR9nURVxCJBzHhJD-14" value="Type" style="ellipse;whiteSpace=wrap;html=1;fillColor=#f8cecc;strokeColor=#b85450;fontStyle=0" parent="1" vertex="1">
          <mxGeometry x="540" y="375" width="60" height="35" as="geometry" />
        </mxCell>
        <mxCell id="LpjfnR9nURVxCJBzHhJD-15" value="Capacity" style="ellipse;whiteSpace=wrap;html=1;fillColor=#f8cecc;strokeColor=#b85450;fontStyle=0" parent="1" vertex="1">
          <mxGeometry x="530" y="423.75" width="60" height="35" as="geometry" />
        </mxCell>
        <mxCell id="LpjfnR9nURVxCJBzHhJD-17" value="" style="endArrow=none;html=1;rounded=0;entryX=0;entryY=0.5;entryDx=0;entryDy=0;exitX=0.75;exitY=0;exitDx=0;exitDy=0;" parent="1" source="hlcQiqIEzfI4XioGV9WH-3" target="LpjfnR9nURVxCJBzHhJD-13" edge="1">
          <mxGeometry width="50" height="50" relative="1" as="geometry">
            <mxPoint x="422" y="450" as="sourcePoint" />
            <mxPoint x="523" y="336" as="targetPoint" />
          </mxGeometry>
        </mxCell>
        <mxCell id="LpjfnR9nURVxCJBzHhJD-19" value="" style="endArrow=none;html=1;rounded=0;" parent="1" edge="1" target="LpjfnR9nURVxCJBzHhJD-14">
          <mxGeometry width="50" height="50" relative="1" as="geometry">
            <mxPoint x="433" y="439" as="sourcePoint" />
            <mxPoint x="538" y="388" as="targetPoint" />
          </mxGeometry>
        </mxCell>
        <mxCell id="LpjfnR9nURVxCJBzHhJD-20" value="" style="endArrow=none;html=1;rounded=0;" parent="1" source="hlcQiqIEzfI4XioGV9WH-3" target="LpjfnR9nURVxCJBzHhJD-15" edge="1">
          <mxGeometry width="50" height="50" relative="1" as="geometry">
            <mxPoint x="443" y="449" as="sourcePoint" />
            <mxPoint x="548" y="398" as="targetPoint" />
          </mxGeometry>
        </mxCell>
        <mxCell id="LpjfnR9nURVxCJBzHhJD-21" value="Membership_ID" style="ellipse;whiteSpace=wrap;html=1;fillColor=#FF0000;strokeColor=#B85450;fontStyle=5" parent="1" vertex="1">
          <mxGeometry x="450" y="100" width="90" height="40" as="geometry" />
        </mxCell>
        <mxCell id="LpjfnR9nURVxCJBzHhJD-22" value="Type Name" style="ellipse;whiteSpace=wrap;html=1;fillColor=#f8cecc;strokeColor=#b85450;fontStyle=0" parent="1" vertex="1">
          <mxGeometry x="552.5" y="120" width="77.5" height="45" as="geometry" />
        </mxCell>
        <mxCell id="LpjfnR9nURVxCJBzHhJD-23" value="Description" style="ellipse;whiteSpace=wrap;html=1;fillColor=#f8cecc;strokeColor=#b85450;fontStyle=0" parent="1" vertex="1">
          <mxGeometry x="605" y="185" width="65" height="35" as="geometry" />
        </mxCell>
        <mxCell id="LpjfnR9nURVxCJBzHhJD-24" value="" style="endArrow=none;html=1;rounded=0;entryX=0.5;entryY=1;entryDx=0;entryDy=0;exitX=0.35;exitY=-0.029;exitDx=0;exitDy=0;exitPerimeter=0;" parent="1" source="hlcQiqIEzfI4XioGV9WH-176" target="LpjfnR9nURVxCJBzHhJD-21" edge="1">
          <mxGeometry width="50" height="50" relative="1" as="geometry">
            <mxPoint x="398" y="449" as="sourcePoint" />
            <mxPoint x="408" y="336" as="targetPoint" />
          </mxGeometry>
        </mxCell>
        <mxCell id="LpjfnR9nURVxCJBzHhJD-25" value="" style="endArrow=none;html=1;rounded=0;entryX=0;entryY=1;entryDx=0;entryDy=0;exitX=0.75;exitY=0;exitDx=0;exitDy=0;" parent="1" source="hlcQiqIEzfI4XioGV9WH-176" target="LpjfnR9nURVxCJBzHhJD-22" edge="1">
          <mxGeometry width="50" height="50" relative="1" as="geometry">
            <mxPoint x="458" y="229" as="sourcePoint" />
            <mxPoint x="483" y="150" as="targetPoint" />
          </mxGeometry>
        </mxCell>
        <mxCell id="LpjfnR9nURVxCJBzHhJD-26" value="" style="endArrow=none;html=1;rounded=0;entryX=0;entryY=1;entryDx=0;entryDy=0;exitX=1;exitY=0.5;exitDx=0;exitDy=0;" parent="1" source="hlcQiqIEzfI4XioGV9WH-176" target="LpjfnR9nURVxCJBzHhJD-23" edge="1">
          <mxGeometry width="50" height="50" relative="1" as="geometry">
            <mxPoint x="490" y="230" as="sourcePoint" />
            <mxPoint x="538" y="160" as="targetPoint" />
          </mxGeometry>
        </mxCell>
        <mxCell id="LpjfnR9nURVxCJBzHhJD-27" value="Member_ID" style="ellipse;whiteSpace=wrap;html=1;fillColor=#FF0000;strokeColor=#B85450;fontStyle=5" parent="1" vertex="1">
          <mxGeometry x="210" y="100" width="70" height="40" as="geometry" />
        </mxCell>
        <mxCell id="LpjfnR9nURVxCJBzHhJD-29" value="Phone Number" style="ellipse;whiteSpace=wrap;html=1;fillColor=#f8cecc;strokeColor=#b85450;fontStyle=0" parent="1" vertex="1">
          <mxGeometry x="300" y="102.5" width="60" height="35" as="geometry" />
        </mxCell>
        <mxCell id="LpjfnR9nURVxCJBzHhJD-30" value="Date Joined" style="ellipse;whiteSpace=wrap;html=1;fillColor=#f8cecc;strokeColor=#b85450;fontStyle=0" parent="1" vertex="1">
          <mxGeometry x="325" y="150" width="60" height="35" as="geometry" />
        </mxCell>
        <mxCell id="LpjfnR9nURVxCJBzHhJD-31" value="Email" style="ellipse;whiteSpace=wrap;html=1;fillColor=#f8cecc;strokeColor=#b85450;fontStyle=0" parent="1" vertex="1">
          <mxGeometry x="145" y="100" width="60" height="35" as="geometry" />
        </mxCell>
        <mxCell id="LpjfnR9nURVxCJBzHhJD-34" value="" style="endArrow=none;html=1;rounded=0;entryX=0;entryY=1;entryDx=0;entryDy=0;exitX=1;exitY=0;exitDx=0;exitDy=0;" parent="1" source="hlcQiqIEzfI4XioGV9WH-175" target="LpjfnR9nURVxCJBzHhJD-30" edge="1">
          <mxGeometry width="50" height="50" relative="1" as="geometry">
            <mxPoint x="458" y="229" as="sourcePoint" />
            <mxPoint x="510" y="150" as="targetPoint" />
          </mxGeometry>
        </mxCell>
        <mxCell id="LpjfnR9nURVxCJBzHhJD-35" value="" style="endArrow=none;html=1;rounded=0;exitX=0.75;exitY=0;exitDx=0;exitDy=0;" parent="1" source="hlcQiqIEzfI4XioGV9WH-175" target="LpjfnR9nURVxCJBzHhJD-29" edge="1">
          <mxGeometry width="50" height="50" relative="1" as="geometry">
            <mxPoint x="275" y="250" as="sourcePoint" />
            <mxPoint x="344" y="190" as="targetPoint" />
          </mxGeometry>
        </mxCell>
        <mxCell id="LpjfnR9nURVxCJBzHhJD-36" value="" style="endArrow=none;html=1;rounded=0;exitX=0.5;exitY=0;exitDx=0;exitDy=0;entryX=0.389;entryY=1.036;entryDx=0;entryDy=0;entryPerimeter=0;" parent="1" source="hlcQiqIEzfI4XioGV9WH-175" target="LpjfnR9nURVxCJBzHhJD-27" edge="1">
          <mxGeometry width="50" height="50" relative="1" as="geometry">
            <mxPoint x="250" y="250" as="sourcePoint" />
            <mxPoint x="329" y="146" as="targetPoint" />
          </mxGeometry>
        </mxCell>
        <mxCell id="LpjfnR9nURVxCJBzHhJD-37" value="" style="endArrow=none;html=1;rounded=0;exitX=0.332;exitY=0.041;exitDx=0;exitDy=0;entryX=0.5;entryY=1;entryDx=0;entryDy=0;exitPerimeter=0;" parent="1" source="hlcQiqIEzfI4XioGV9WH-175" target="LpjfnR9nURVxCJBzHhJD-31" edge="1">
          <mxGeometry width="50" height="50" relative="1" as="geometry">
            <mxPoint x="235" y="250" as="sourcePoint" />
            <mxPoint x="247" y="151" as="targetPoint" />
          </mxGeometry>
        </mxCell>
        <mxCell id="LpjfnR9nURVxCJBzHhJD-38" value="" style="endArrow=none;html=1;rounded=0;exitX=0;exitY=0.25;exitDx=0;exitDy=0;" parent="1" source="hlcQiqIEzfI4XioGV9WH-175" target="o3ukNVQwn3zCSA9WqV0T-26" edge="1">
          <mxGeometry width="50" height="50" relative="1" as="geometry">
            <mxPoint x="222" y="251" as="sourcePoint" />
            <mxPoint x="131.67868017563114" y="152.56888694492773" as="targetPoint" />
          </mxGeometry>
        </mxCell>
        <mxCell id="LpjfnR9nURVxCJBzHhJD-40" value="Course_ID" style="ellipse;whiteSpace=wrap;html=1;fillColor=#FF0000;strokeColor=#B85450;fontStyle=5" parent="1" vertex="1">
          <mxGeometry x="100" y="293.5" width="70" height="40" as="geometry" />
        </mxCell>
        <mxCell id="LpjfnR9nURVxCJBzHhJD-41" value="" style="endArrow=none;html=1;rounded=0;exitX=0.5;exitY=0;exitDx=0;exitDy=0;entryX=0.41;entryY=0.96;entryDx=0;entryDy=0;entryPerimeter=0;" parent="1" source="hlcQiqIEzfI4XioGV9WH-173" target="LpjfnR9nURVxCJBzHhJD-40" edge="1">
          <mxGeometry width="50" height="50" relative="1" as="geometry">
            <mxPoint x="195" y="259" as="sourcePoint" />
            <mxPoint x="142" y="163" as="targetPoint" />
          </mxGeometry>
        </mxCell>
        <mxCell id="LpjfnR9nURVxCJBzHhJD-43" value="Course Capacity" style="ellipse;whiteSpace=wrap;html=1;fillColor=#f8cecc;strokeColor=#b85450;fontStyle=0" parent="1" vertex="1">
          <mxGeometry x="175" y="305" width="60" height="35" as="geometry" />
        </mxCell>
        <mxCell id="LpjfnR9nURVxCJBzHhJD-44" value="Course Cost" style="ellipse;whiteSpace=wrap;html=1;fillColor=#f8cecc;strokeColor=#b85450;fontStyle=0" parent="1" vertex="1">
          <mxGeometry x="5" y="301" width="60" height="35" as="geometry" />
        </mxCell>
        <mxCell id="LpjfnR9nURVxCJBzHhJD-45" value="" style="endArrow=none;html=1;rounded=0;entryX=0;entryY=1;entryDx=0;entryDy=0;exitX=0.75;exitY=0;exitDx=0;exitDy=0;" parent="1" source="hlcQiqIEzfI4XioGV9WH-173" target="LpjfnR9nURVxCJBzHhJD-43" edge="1">
          <mxGeometry width="50" height="50" relative="1" as="geometry">
            <mxPoint x="140" y="375" as="sourcePoint" />
            <mxPoint x="139" y="342" as="targetPoint" />
          </mxGeometry>
        </mxCell>
        <mxCell id="LpjfnR9nURVxCJBzHhJD-46" value="" style="endArrow=none;html=1;rounded=0;entryX=1;entryY=1;entryDx=0;entryDy=0;exitX=0;exitY=0.25;exitDx=0;exitDy=0;" parent="1" source="hlcQiqIEzfI4XioGV9WH-173" target="LpjfnR9nURVxCJBzHhJD-44" edge="1">
          <mxGeometry width="50" height="50" relative="1" as="geometry">
            <mxPoint x="160" y="375" as="sourcePoint" />
            <mxPoint x="194" y="345" as="targetPoint" />
          </mxGeometry>
        </mxCell>
        <mxCell id="LpjfnR9nURVxCJBzHhJD-47" value="Experience" style="ellipse;whiteSpace=wrap;html=1;fillColor=#f8cecc;strokeColor=#b85450;fontStyle=0" parent="1" vertex="1">
          <mxGeometry x="-190" y="390" width="70" height="35" as="geometry" />
        </mxCell>
        <mxCell id="LpjfnR9nURVxCJBzHhJD-50" value="" style="endArrow=none;dashed=1;html=1;rounded=0;" parent="1" source="LpjfnR9nURVxCJBzHhJD-48" edge="1">
          <mxGeometry width="50" height="50" relative="1" as="geometry">
            <mxPoint x="-216" y="475" as="sourcePoint" />
            <mxPoint x="-173" y="475" as="targetPoint" />
          </mxGeometry>
        </mxCell>
        <mxCell id="LpjfnR9nURVxCJBzHhJD-51" value="" style="endArrow=none;html=1;rounded=0;entryX=0;entryY=0;entryDx=0;entryDy=0;" parent="1" source="LpjfnR9nURVxCJBzHhJD-47" target="hlcQiqIEzfI4XioGV9WH-144" edge="1">
          <mxGeometry width="50" height="50" relative="1" as="geometry">
            <mxPoint x="-20" y="398" as="sourcePoint" />
            <mxPoint x="-65" y="466.25" as="targetPoint" />
          </mxGeometry>
        </mxCell>
        <mxCell id="LpjfnR9nURVxCJBzHhJD-52" value="" style="endArrow=none;html=1;rounded=0;entryX=0;entryY=0.5;entryDx=0;entryDy=0;" parent="1" source="LpjfnR9nURVxCJBzHhJD-48" target="hlcQiqIEzfI4XioGV9WH-143" edge="1">
          <mxGeometry width="50" height="50" relative="1" as="geometry">
            <mxPoint x="-157" y="439" as="sourcePoint" />
            <mxPoint x="-105" y="465" as="targetPoint" />
          </mxGeometry>
        </mxCell>
        <mxCell id="LpjfnR9nURVxCJBzHhJD-53" value="Branch" style="ellipse;whiteSpace=wrap;html=1;fillColor=#f8cecc;strokeColor=#b85450;fontStyle=0" parent="1" vertex="1">
          <mxGeometry x="-185" y="520" width="70" height="35" as="geometry" />
        </mxCell>
        <mxCell id="LpjfnR9nURVxCJBzHhJD-54" value="" style="endArrow=none;html=1;rounded=0;entryX=0;entryY=1;entryDx=0;entryDy=0;" parent="1" source="LpjfnR9nURVxCJBzHhJD-53" target="hlcQiqIEzfI4XioGV9WH-143" edge="1">
          <mxGeometry width="50" height="50" relative="1" as="geometry">
            <mxPoint x="-155" y="477" as="sourcePoint" />
            <mxPoint x="-110" y="480" as="targetPoint" />
          </mxGeometry>
        </mxCell>
        <mxCell id="LpjfnR9nURVxCJBzHhJD-57" value="Staff_ID" style="ellipse;whiteSpace=wrap;html=1;fillColor=#FF0000;strokeColor=#B85450;fontStyle=5" parent="1" vertex="1">
          <mxGeometry x="52.5" y="495" width="60" height="30" as="geometry" />
        </mxCell>
        <mxCell id="LpjfnR9nURVxCJBzHhJD-60" value="Salary" style="ellipse;whiteSpace=wrap;html=1;fillColor=#f8cecc;strokeColor=#b85450;fontStyle=0" parent="1" vertex="1">
          <mxGeometry x="190" y="482.5" width="45" height="30" as="geometry" />
        </mxCell>
        <mxCell id="LpjfnR9nURVxCJBzHhJD-63" value="" style="endArrow=none;html=1;rounded=0;" parent="1" source="hlcQiqIEzfI4XioGV9WH-89" target="o3ukNVQwn3zCSA9WqV0T-32" edge="1">
          <mxGeometry width="50" height="50" relative="1" as="geometry">
            <mxPoint x="117.5" y="533" as="sourcePoint" />
            <mxPoint x="123.28645741854189" y="549.4910729967855" as="targetPoint" />
          </mxGeometry>
        </mxCell>
        <mxCell id="LpjfnR9nURVxCJBzHhJD-64" value="" style="endArrow=none;html=1;rounded=0;" parent="1" source="hlcQiqIEzfI4XioGV9WH-89" edge="1">
          <mxGeometry width="50" height="50" relative="1" as="geometry">
            <mxPoint x="172" y="579.25" as="sourcePoint" />
            <mxPoint x="141.3371636883444" y="510.04459697692823" as="targetPoint" />
          </mxGeometry>
        </mxCell>
        <mxCell id="LpjfnR9nURVxCJBzHhJD-66" value="" style="endArrow=none;html=1;rounded=0;exitX=0.614;exitY=-0.034;exitDx=0;exitDy=0;exitPerimeter=0;" parent="1" source="hlcQiqIEzfI4XioGV9WH-89" target="LpjfnR9nURVxCJBzHhJD-60" edge="1">
          <mxGeometry width="50" height="50" relative="1" as="geometry">
            <mxPoint x="171" y="551.25" as="sourcePoint" />
            <mxPoint x="151" y="520.25" as="targetPoint" />
          </mxGeometry>
        </mxCell>
        <mxCell id="LpjfnR9nURVxCJBzHhJD-67" value="" style="endArrow=none;html=1;rounded=0;" parent="1" source="LpjfnR9nURVxCJBzHhJD-57" target="hlcQiqIEzfI4XioGV9WH-89" edge="1">
          <mxGeometry width="50" height="50" relative="1" as="geometry">
            <mxPoint x="188" y="550.25" as="sourcePoint" />
            <mxPoint x="194" y="523.25" as="targetPoint" />
          </mxGeometry>
        </mxCell>
        <mxCell id="LpjfnR9nURVxCJBzHhJD-69" value="Complex_ID" style="ellipse;whiteSpace=wrap;html=1;fillColor=#FF0000;strokeColor=#B85450;fontStyle=5" parent="1" vertex="1">
          <mxGeometry x="175" y="798.75" width="75" height="30" as="geometry" />
        </mxCell>
        <mxCell id="LpjfnR9nURVxCJBzHhJD-70" value="" style="endArrow=none;html=1;rounded=0;" parent="1" source="hlcQiqIEzfI4XioGV9WH-1" target="LpjfnR9nURVxCJBzHhJD-69" edge="1">
          <mxGeometry width="50" height="50" relative="1" as="geometry">
            <mxPoint x="82.5" y="542.25" as="sourcePoint" />
            <mxPoint x="41.5" y="566.25" as="targetPoint" />
          </mxGeometry>
        </mxCell>
        <mxCell id="LpjfnR9nURVxCJBzHhJD-72" value="Role" style="ellipse;whiteSpace=wrap;html=1;fillColor=#f8cecc;strokeColor=#b85450;fontStyle=0" parent="1" vertex="1">
          <mxGeometry x="125" y="490" width="45" height="30" as="geometry" />
        </mxCell>
        <mxCell id="LpjfnR9nURVxCJBzHhJD-73" value="State" style="ellipse;whiteSpace=wrap;html=1;fillColor=#f8cecc;strokeColor=#b85450;fontStyle=0" parent="1" vertex="1">
          <mxGeometry x="27.5" y="645" width="45" height="30" as="geometry" />
        </mxCell>
        <mxCell id="LpjfnR9nURVxCJBzHhJD-74" value="City" style="ellipse;whiteSpace=wrap;html=1;fillColor=#f8cecc;strokeColor=#b85450;fontStyle=0" parent="1" vertex="1">
          <mxGeometry x="100" y="625" width="45" height="30" as="geometry" />
        </mxCell>
        <mxCell id="LpjfnR9nURVxCJBzHhJD-75" value="Adress" style="ellipse;whiteSpace=wrap;html=1;fillColor=#f8cecc;strokeColor=#b85450;fontStyle=0" parent="1" vertex="1">
          <mxGeometry x="167.5" y="622.5" width="57.5" height="30" as="geometry" />
        </mxCell>
        <mxCell id="LpjfnR9nURVxCJBzHhJD-76" value="" style="endArrow=none;html=1;rounded=0;" parent="1" source="hlcQiqIEzfI4XioGV9WH-1" target="LpjfnR9nURVxCJBzHhJD-74" edge="1">
          <mxGeometry width="50" height="50" relative="1" as="geometry">
            <mxPoint x="132.5" y="691.25" as="sourcePoint" />
            <mxPoint x="88.5" y="490.25" as="targetPoint" />
          </mxGeometry>
        </mxCell>
        <mxCell id="LpjfnR9nURVxCJBzHhJD-77" value="" style="endArrow=none;html=1;rounded=0;" parent="1" source="hlcQiqIEzfI4XioGV9WH-1" target="LpjfnR9nURVxCJBzHhJD-75" edge="1">
          <mxGeometry width="50" height="50" relative="1" as="geometry">
            <mxPoint x="139.5" y="681.25" as="sourcePoint" />
            <mxPoint x="132.5" y="643.25" as="targetPoint" />
          </mxGeometry>
        </mxCell>
        <mxCell id="LpjfnR9nURVxCJBzHhJD-78" value="" style="endArrow=none;html=1;rounded=0;" parent="1" source="hlcQiqIEzfI4XioGV9WH-1" target="LpjfnR9nURVxCJBzHhJD-73" edge="1">
          <mxGeometry width="50" height="50" relative="1" as="geometry">
            <mxPoint x="154.5" y="684.25" as="sourcePoint" />
            <mxPoint x="182.5" y="650.25" as="targetPoint" />
          </mxGeometry>
        </mxCell>
        <mxCell id="LpjfnR9nURVxCJBzHhJD-79" value="Zip code" style="ellipse;whiteSpace=wrap;html=1;fillColor=#f8cecc;strokeColor=#b85450;fontStyle=0" parent="1" vertex="1">
          <mxGeometry x="202.5" y="691.25" width="57.5" height="30" as="geometry" />
        </mxCell>
        <mxCell id="LpjfnR9nURVxCJBzHhJD-80" value="" style="endArrow=none;html=1;rounded=0;" parent="1" source="hlcQiqIEzfI4XioGV9WH-1" target="LpjfnR9nURVxCJBzHhJD-79" edge="1">
          <mxGeometry width="50" height="50" relative="1" as="geometry">
            <mxPoint x="154.5" y="684.25" as="sourcePoint" />
            <mxPoint x="182.5" y="650.25" as="targetPoint" />
          </mxGeometry>
        </mxCell>
        <mxCell id="LpjfnR9nURVxCJBzHhJD-83" value="phone number" style="ellipse;whiteSpace=wrap;html=1;fillColor=#f8cecc;strokeColor=#b85450;fontStyle=0" parent="1" vertex="1">
          <mxGeometry x="12.5" y="703.75" width="65" height="35" as="geometry" />
        </mxCell>
        <mxCell id="LpjfnR9nURVxCJBzHhJD-84" value="Year Established" style="ellipse;whiteSpace=wrap;html=1;fillColor=#f8cecc;strokeColor=#b85450;fontStyle=0" parent="1" vertex="1">
          <mxGeometry x="192.5" y="738.75" width="75" height="42.5" as="geometry" />
        </mxCell>
        <mxCell id="LpjfnR9nURVxCJBzHhJD-85" value="Website" style="ellipse;whiteSpace=wrap;html=1;fillColor=#f8cecc;strokeColor=#b85450;fontStyle=0" parent="1" vertex="1">
          <mxGeometry x="112.5" y="797.5" width="57.5" height="30" as="geometry" />
        </mxCell>
        <mxCell id="LpjfnR9nURVxCJBzHhJD-86" value="Number of Facilities" style="ellipse;whiteSpace=wrap;html=1;fillColor=#f8cecc;strokeColor=#b85450;fontStyle=0" parent="1" vertex="1">
          <mxGeometry x="10" y="748.75" width="65" height="42.5" as="geometry" />
        </mxCell>
        <mxCell id="LpjfnR9nURVxCJBzHhJD-87" value="" style="endArrow=none;html=1;rounded=0;" parent="1" source="hlcQiqIEzfI4XioGV9WH-1" target="LpjfnR9nURVxCJBzHhJD-85" edge="1">
          <mxGeometry width="50" height="50" relative="1" as="geometry">
            <mxPoint x="177.5" y="705.25" as="sourcePoint" />
            <mxPoint x="213.5" y="711.25" as="targetPoint" />
          </mxGeometry>
        </mxCell>
        <mxCell id="LpjfnR9nURVxCJBzHhJD-88" value="" style="endArrow=none;html=1;rounded=0;" parent="1" source="hlcQiqIEzfI4XioGV9WH-1" target="LpjfnR9nURVxCJBzHhJD-86" edge="1">
          <mxGeometry width="50" height="50" relative="1" as="geometry">
            <mxPoint x="142.5" y="714.25" as="sourcePoint" />
            <mxPoint x="143.5" y="811.25" as="targetPoint" />
          </mxGeometry>
        </mxCell>
        <mxCell id="LpjfnR9nURVxCJBzHhJD-89" value="" style="endArrow=none;html=1;rounded=0;" parent="1" source="hlcQiqIEzfI4XioGV9WH-1" target="LpjfnR9nURVxCJBzHhJD-83" edge="1">
          <mxGeometry width="50" height="50" relative="1" as="geometry">
            <mxPoint x="130.5" y="714.25" as="sourcePoint" />
            <mxPoint x="89.5" y="765.25" as="targetPoint" />
          </mxGeometry>
        </mxCell>
        <mxCell id="LpjfnR9nURVxCJBzHhJD-91" value="Social_Media_ID" style="ellipse;whiteSpace=wrap;html=1;fillColor=#FF0000;strokeColor=#B85450;fontStyle=5" parent="1" vertex="1">
          <mxGeometry x="-210" y="781.25" width="110" height="30" as="geometry" />
        </mxCell>
        <mxCell id="LpjfnR9nURVxCJBzHhJD-92" value="" style="endArrow=none;html=1;rounded=0;" parent="1" source="hlcQiqIEzfI4XioGV9WH-140" target="LpjfnR9nURVxCJBzHhJD-91" edge="1">
          <mxGeometry width="50" height="50" relative="1" as="geometry">
            <mxPoint x="130.5" y="714.25" as="sourcePoint" />
            <mxPoint x="89.5" y="765.25" as="targetPoint" />
          </mxGeometry>
        </mxCell>
        <mxCell id="LpjfnR9nURVxCJBzHhJD-93" value="Platform" style="ellipse;whiteSpace=wrap;html=1;fillColor=#f8cecc;strokeColor=#b85450;fontStyle=0" parent="1" vertex="1">
          <mxGeometry x="-183.75" y="738.75" width="57.5" height="30" as="geometry" />
        </mxCell>
        <mxCell id="LpjfnR9nURVxCJBzHhJD-94" value="" style="endArrow=none;html=1;rounded=0;" parent="1" source="hlcQiqIEzfI4XioGV9WH-140" target="LpjfnR9nURVxCJBzHhJD-93" edge="1">
          <mxGeometry width="50" height="50" relative="1" as="geometry">
            <mxPoint x="-41.5" y="809.25" as="sourcePoint" />
            <mxPoint x="-69.5" y="891.25" as="targetPoint" />
          </mxGeometry>
        </mxCell>
        <mxCell id="LpjfnR9nURVxCJBzHhJD-96" value="URL" style="ellipse;whiteSpace=wrap;html=1;fillColor=#f8cecc;strokeColor=#b85450;fontStyle=0" parent="1" vertex="1">
          <mxGeometry x="-138.75" y="706.25" width="57.5" height="30" as="geometry" />
        </mxCell>
        <mxCell id="LpjfnR9nURVxCJBzHhJD-98" value="" style="endArrow=none;html=1;rounded=0;" parent="1" source="hlcQiqIEzfI4XioGV9WH-140" target="LpjfnR9nURVxCJBzHhJD-96" edge="1">
          <mxGeometry width="50" height="50" relative="1" as="geometry">
            <mxPoint x="-60.5" y="809.25" as="sourcePoint" />
            <mxPoint x="-120.5" y="845.25" as="targetPoint" />
          </mxGeometry>
        </mxCell>
        <mxCell id="LpjfnR9nURVxCJBzHhJD-100" value="Availability Day" style="ellipse;whiteSpace=wrap;html=1;fillColor=#EA6B66;strokeColor=#b85450;fontStyle=0" parent="1" vertex="1">
          <mxGeometry x="295" y="807.5" width="105" height="35" as="geometry" />
        </mxCell>
        <mxCell id="LpjfnR9nURVxCJBzHhJD-101" value="" style="endArrow=none;dashed=1;html=1;rounded=0;" parent="1" edge="1">
          <mxGeometry width="50" height="50" relative="1" as="geometry">
            <mxPoint x="304" y="834.25" as="sourcePoint" />
            <mxPoint x="389" y="834" as="targetPoint" />
          </mxGeometry>
        </mxCell>
        <mxCell id="LpjfnR9nURVxCJBzHhJD-102" value="Availability Hour" style="ellipse;whiteSpace=wrap;html=1;fillColor=#EA6B66;strokeColor=#b85450;fontStyle=0" parent="1" vertex="1">
          <mxGeometry x="450" y="805" width="105" height="35" as="geometry" />
        </mxCell>
        <mxCell id="LpjfnR9nURVxCJBzHhJD-103" value="" style="endArrow=none;dashed=1;html=1;rounded=0;" parent="1" edge="1">
          <mxGeometry width="50" height="50" relative="1" as="geometry">
            <mxPoint x="459" y="831.75" as="sourcePoint" />
            <mxPoint x="544" y="831.5" as="targetPoint" />
          </mxGeometry>
        </mxCell>
        <mxCell id="LpjfnR9nURVxCJBzHhJD-104" value="" style="endArrow=none;html=1;rounded=0;entryX=0.352;entryY=1.026;entryDx=0;entryDy=0;entryPerimeter=0;" parent="1" source="LpjfnR9nURVxCJBzHhJD-100" target="hlcQiqIEzfI4XioGV9WH-41" edge="1">
          <mxGeometry width="50" height="50" relative="1" as="geometry">
            <mxPoint x="210" y="830" as="sourcePoint" />
            <mxPoint x="260" y="780" as="targetPoint" />
          </mxGeometry>
        </mxCell>
        <mxCell id="LpjfnR9nURVxCJBzHhJD-105" value="" style="endArrow=none;html=1;rounded=0;entryX=0.697;entryY=0.999;entryDx=0;entryDy=0;entryPerimeter=0;" parent="1" source="LpjfnR9nURVxCJBzHhJD-102" target="hlcQiqIEzfI4XioGV9WH-41" edge="1">
          <mxGeometry width="50" height="50" relative="1" as="geometry">
            <mxPoint x="366" y="818" as="sourcePoint" />
            <mxPoint x="403" y="741" as="targetPoint" />
          </mxGeometry>
        </mxCell>
        <mxCell id="o3ukNVQwn3zCSA9WqV0T-1" value="Sport Type ID" style="ellipse;whiteSpace=wrap;html=1;fillColor=#FF0000;strokeColor=#B85450;fontStyle=5" parent="1" vertex="1">
          <mxGeometry x="575" y="803.75" width="77.5" height="30" as="geometry" />
        </mxCell>
        <mxCell id="o3ukNVQwn3zCSA9WqV0T-2" value="" style="endArrow=none;html=1;rounded=0;" parent="1" source="hlcQiqIEzfI4XioGV9WH-64" target="o3ukNVQwn3zCSA9WqV0T-1" edge="1">
          <mxGeometry width="50" height="50" relative="1" as="geometry">
            <mxPoint x="590" y="650" as="sourcePoint" />
            <mxPoint x="615" y="714" as="targetPoint" />
          </mxGeometry>
        </mxCell>
        <mxCell id="o3ukNVQwn3zCSA9WqV0T-3" value="Sport Type Name" style="ellipse;whiteSpace=wrap;html=1;fillColor=#f8cecc;strokeColor=#b85450;fontStyle=0" parent="1" vertex="1">
          <mxGeometry x="665" y="791.25" width="75" height="42.5" as="geometry" />
        </mxCell>
        <mxCell id="o3ukNVQwn3zCSA9WqV0T-4" value="" style="endArrow=none;html=1;rounded=0;" parent="1" source="hlcQiqIEzfI4XioGV9WH-64" target="o3ukNVQwn3zCSA9WqV0T-3" edge="1">
          <mxGeometry width="50" height="50" relative="1" as="geometry">
            <mxPoint x="647" y="728" as="sourcePoint" />
            <mxPoint x="627" y="814" as="targetPoint" />
          </mxGeometry>
        </mxCell>
        <mxCell id="o3ukNVQwn3zCSA9WqV0T-5" value="" style="endArrow=none;html=1;rounded=0;" parent="1" source="hlcQiqIEzfI4XioGV9WH-64" target="o3ukNVQwn3zCSA9WqV0T-6" edge="1">
          <mxGeometry width="50" height="50" relative="1" as="geometry">
            <mxPoint x="657" y="738" as="sourcePoint" />
            <mxPoint x="637" y="824" as="targetPoint" />
          </mxGeometry>
        </mxCell>
        <mxCell id="o3ukNVQwn3zCSA9WqV0T-6" value="Sport Type Definition" style="ellipse;whiteSpace=wrap;html=1;fillColor=#f8cecc;strokeColor=#b85450;fontStyle=0" parent="1" vertex="1">
          <mxGeometry x="720" y="721.25" width="75" height="42.5" as="geometry" />
        </mxCell>
        <mxCell id="o3ukNVQwn3zCSA9WqV0T-7" value="" style="endArrow=none;dashed=1;html=1;rounded=0;" parent="1" target="LpjfnR9nURVxCJBzHhJD-48" edge="1">
          <mxGeometry width="50" height="50" relative="1" as="geometry">
            <mxPoint x="-216" y="475" as="sourcePoint" />
            <mxPoint x="-173" y="475" as="targetPoint" />
          </mxGeometry>
        </mxCell>
        <mxCell id="LpjfnR9nURVxCJBzHhJD-48" value="Coach_ID" style="ellipse;whiteSpace=wrap;html=1;fillColor=#EA6B66;strokeColor=#b85450;fontStyle=0" parent="1" vertex="1">
          <mxGeometry x="-220" y="451.25" width="60" height="35" as="geometry" />
        </mxCell>
        <mxCell id="o3ukNVQwn3zCSA9WqV0T-8" value="" style="endArrow=none;html=1;rounded=0;" parent="1" source="hlcQiqIEzfI4XioGV9WH-70" target="o3ukNVQwn3zCSA9WqV0T-9" edge="1">
          <mxGeometry width="50" height="50" relative="1" as="geometry">
            <mxPoint x="685" y="725" as="sourcePoint" />
            <mxPoint x="647" y="834" as="targetPoint" />
          </mxGeometry>
        </mxCell>
        <mxCell id="o3ukNVQwn3zCSA9WqV0T-9" value="Description" style="ellipse;whiteSpace=wrap;html=1;fillColor=#f8cecc;strokeColor=#b85450;fontStyle=0" parent="1" vertex="1">
          <mxGeometry x="762.5" y="530" width="67.5" height="28.75" as="geometry" />
        </mxCell>
        <mxCell id="o3ukNVQwn3zCSA9WqV0T-10" value="" style="endArrow=none;html=1;rounded=0;" parent="1" source="hlcQiqIEzfI4XioGV9WH-70" target="o3ukNVQwn3zCSA9WqV0T-11" edge="1">
          <mxGeometry width="50" height="50" relative="1" as="geometry">
            <mxPoint x="695" y="735" as="sourcePoint" />
            <mxPoint x="657" y="844" as="targetPoint" />
          </mxGeometry>
        </mxCell>
        <mxCell id="o3ukNVQwn3zCSA9WqV0T-11" value="Age Restriction" style="ellipse;whiteSpace=wrap;html=1;fillColor=#f8cecc;strokeColor=#b85450;fontStyle=0" parent="1" vertex="1">
          <mxGeometry x="800" y="645" width="70" height="40" as="geometry" />
        </mxCell>
        <mxCell id="o3ukNVQwn3zCSA9WqV0T-12" value="" style="endArrow=none;html=1;rounded=0;" parent="1" source="hlcQiqIEzfI4XioGV9WH-70" target="o3ukNVQwn3zCSA9WqV0T-13" edge="1">
          <mxGeometry width="50" height="50" relative="1" as="geometry">
            <mxPoint x="705" y="745" as="sourcePoint" />
            <mxPoint x="667" y="854" as="targetPoint" />
          </mxGeometry>
        </mxCell>
        <mxCell id="o3ukNVQwn3zCSA9WqV0T-13" value="Quantity" style="ellipse;whiteSpace=wrap;html=1;fillColor=#f8cecc;strokeColor=#b85450;fontStyle=0" parent="1" vertex="1">
          <mxGeometry x="732.5" y="660" width="60" height="37.5" as="geometry" />
        </mxCell>
        <mxCell id="o3ukNVQwn3zCSA9WqV0T-14" value="" style="endArrow=none;html=1;rounded=0;" parent="1" source="hlcQiqIEzfI4XioGV9WH-70" target="o3ukNVQwn3zCSA9WqV0T-15" edge="1">
          <mxGeometry width="50" height="50" relative="1" as="geometry">
            <mxPoint x="706.5044307292956" y="598.75" as="sourcePoint" />
            <mxPoint x="632" y="750.25" as="targetPoint" />
          </mxGeometry>
        </mxCell>
        <mxCell id="o3ukNVQwn3zCSA9WqV0T-15" value="Amenity Name" style="ellipse;whiteSpace=wrap;html=1;fillColor=#f8cecc;strokeColor=#b85450;fontStyle=0" parent="1" vertex="1">
          <mxGeometry x="655" y="630" width="65" height="30" as="geometry" />
        </mxCell>
        <mxCell id="o3ukNVQwn3zCSA9WqV0T-22" value="Amenity_ID" style="ellipse;whiteSpace=wrap;html=1;fillColor=#FF0000;strokeColor=#B85450;fontStyle=5" parent="1" vertex="1">
          <mxGeometry x="810" y="580" width="70" height="40" as="geometry" />
        </mxCell>
        <mxCell id="o3ukNVQwn3zCSA9WqV0T-23" value="" style="endArrow=none;html=1;rounded=0;" parent="1" source="hlcQiqIEzfI4XioGV9WH-70" target="o3ukNVQwn3zCSA9WqV0T-22" edge="1">
          <mxGeometry width="50" height="50" relative="1" as="geometry">
            <mxPoint x="780" y="618" as="sourcePoint" />
            <mxPoint x="826" y="658" as="targetPoint" />
          </mxGeometry>
        </mxCell>
        <mxCell id="o3ukNVQwn3zCSA9WqV0T-24" value="First Name" style="ellipse;whiteSpace=wrap;html=1;fillColor=#f8cecc;strokeColor=#b85450;fontStyle=0" parent="1" vertex="1">
          <mxGeometry x="70" y="110" width="55" height="27.5" as="geometry" />
        </mxCell>
        <mxCell id="o3ukNVQwn3zCSA9WqV0T-25" value="Last Name" style="ellipse;whiteSpace=wrap;html=1;fillColor=#f8cecc;strokeColor=#b85450;fontStyle=0" parent="1" vertex="1">
          <mxGeometry x="30" y="150" width="50" height="30" as="geometry" />
        </mxCell>
        <mxCell id="o3ukNVQwn3zCSA9WqV0T-26" value="Name" style="ellipse;whiteSpace=wrap;html=1;fillColor=#f8cecc;strokeColor=#b85450;fontStyle=0" parent="1" vertex="1">
          <mxGeometry x="100" y="150" width="60" height="40" as="geometry" />
        </mxCell>
        <mxCell id="o3ukNVQwn3zCSA9WqV0T-27" value="" style="endArrow=none;html=1;rounded=0;" parent="1" source="o3ukNVQwn3zCSA9WqV0T-26" target="o3ukNVQwn3zCSA9WqV0T-25" edge="1">
          <mxGeometry width="50" height="50" relative="1" as="geometry">
            <mxPoint x="195" y="259" as="sourcePoint" />
            <mxPoint x="151" y="194" as="targetPoint" />
          </mxGeometry>
        </mxCell>
        <mxCell id="o3ukNVQwn3zCSA9WqV0T-28" value="" style="endArrow=none;html=1;rounded=0;" parent="1" source="o3ukNVQwn3zCSA9WqV0T-26" target="o3ukNVQwn3zCSA9WqV0T-24" edge="1">
          <mxGeometry width="50" height="50" relative="1" as="geometry">
            <mxPoint x="99.5" y="183.89" as="sourcePoint" />
            <mxPoint x="72.5" y="183.89" as="targetPoint" />
          </mxGeometry>
        </mxCell>
        <mxCell id="o3ukNVQwn3zCSA9WqV0T-30" value="First Name" style="ellipse;whiteSpace=wrap;html=1;fillColor=#f8cecc;strokeColor=#b85450;fontStyle=0" parent="1" vertex="1">
          <mxGeometry x="-60" y="605" width="50" height="35" as="geometry" />
        </mxCell>
        <mxCell id="o3ukNVQwn3zCSA9WqV0T-31" value="Last Name" style="ellipse;whiteSpace=wrap;html=1;fillColor=#f8cecc;strokeColor=#b85450;fontStyle=0" parent="1" vertex="1">
          <mxGeometry x="-60" y="570" width="57.5" height="30" as="geometry" />
        </mxCell>
        <mxCell id="o3ukNVQwn3zCSA9WqV0T-32" value="Name" style="ellipse;whiteSpace=wrap;html=1;fillColor=#f8cecc;strokeColor=#b85450;fontStyle=0" parent="1" vertex="1">
          <mxGeometry x="2.5" y="587.25" width="60" height="35" as="geometry" />
        </mxCell>
        <mxCell id="o3ukNVQwn3zCSA9WqV0T-33" value="" style="endArrow=none;html=1;rounded=0;" parent="1" source="o3ukNVQwn3zCSA9WqV0T-32" target="o3ukNVQwn3zCSA9WqV0T-31" edge="1">
          <mxGeometry width="50" height="50" relative="1" as="geometry">
            <mxPoint x="-40" y="756.25" as="sourcePoint" />
            <mxPoint x="-84" y="691.25" as="targetPoint" />
          </mxGeometry>
        </mxCell>
        <mxCell id="o3ukNVQwn3zCSA9WqV0T-34" value="" style="endArrow=none;html=1;rounded=0;" parent="1" source="o3ukNVQwn3zCSA9WqV0T-32" target="o3ukNVQwn3zCSA9WqV0T-30" edge="1">
          <mxGeometry width="50" height="50" relative="1" as="geometry">
            <mxPoint x="-135.5" y="681.14" as="sourcePoint" />
            <mxPoint x="-162.5" y="681.14" as="targetPoint" />
          </mxGeometry>
        </mxCell>
        <mxCell id="o3ukNVQwn3zCSA9WqV0T-36" value="Event_ID" style="ellipse;whiteSpace=wrap;html=1;fillColor=#FF0000;strokeColor=#B85450;fontStyle=5" parent="1" vertex="1">
          <mxGeometry x="603.75" y="367.5" width="60" height="30" as="geometry" />
        </mxCell>
        <mxCell id="o3ukNVQwn3zCSA9WqV0T-37" value="Event Name" style="ellipse;whiteSpace=wrap;html=1;fillColor=#f8cecc;strokeColor=#b85450;fontStyle=0" parent="1" vertex="1">
          <mxGeometry x="670" y="362.5" width="60" height="35" as="geometry" />
        </mxCell>
        <mxCell id="o3ukNVQwn3zCSA9WqV0T-38" value="Description" style="ellipse;whiteSpace=wrap;html=1;fillColor=#f8cecc;strokeColor=#b85450;fontStyle=0" parent="1" vertex="1">
          <mxGeometry x="597.5" y="520" width="72.5" height="35" as="geometry" />
        </mxCell>
        <mxCell id="o3ukNVQwn3zCSA9WqV0T-39" value="" style="endArrow=none;html=1;rounded=0;" parent="1" source="hlcQiqIEzfI4XioGV9WH-76" target="o3ukNVQwn3zCSA9WqV0T-36" edge="1">
          <mxGeometry width="50" height="50" relative="1" as="geometry">
            <mxPoint x="620" y="467.25" as="sourcePoint" />
            <mxPoint x="580" y="584.25" as="targetPoint" />
          </mxGeometry>
        </mxCell>
        <mxCell id="o3ukNVQwn3zCSA9WqV0T-40" value="" style="endArrow=none;html=1;rounded=0;entryX=0;entryY=1;entryDx=0;entryDy=0;exitX=0.75;exitY=0;exitDx=0;exitDy=0;" parent="1" target="o3ukNVQwn3zCSA9WqV0T-37" edge="1">
          <mxGeometry width="50" height="50" relative="1" as="geometry">
            <mxPoint x="652" y="468.25" as="sourcePoint" />
            <mxPoint x="655" y="398.25" as="targetPoint" />
          </mxGeometry>
        </mxCell>
        <mxCell id="o3ukNVQwn3zCSA9WqV0T-41" value="" style="endArrow=none;html=1;rounded=0;" parent="1" source="hlcQiqIEzfI4XioGV9WH-76" target="o3ukNVQwn3zCSA9WqV0T-38" edge="1">
          <mxGeometry width="50" height="50" relative="1" as="geometry">
            <mxPoint x="672" y="486.25" as="sourcePoint" />
            <mxPoint x="710" y="408.25" as="targetPoint" />
          </mxGeometry>
        </mxCell>
        <mxCell id="o3ukNVQwn3zCSA9WqV0T-42" value="End Date" style="ellipse;whiteSpace=wrap;html=1;fillColor=#f8cecc;strokeColor=#b85450;fontStyle=0" parent="1" vertex="1">
          <mxGeometry x="680" y="407.5" width="72.5" height="35" as="geometry" />
        </mxCell>
        <mxCell id="o3ukNVQwn3zCSA9WqV0T-43" value="Start Date" style="ellipse;whiteSpace=wrap;html=1;fillColor=#f8cecc;strokeColor=#b85450;fontStyle=0" parent="1" vertex="1">
          <mxGeometry x="680" y="512.5" width="72.5" height="35" as="geometry" />
        </mxCell>
        <mxCell id="o3ukNVQwn3zCSA9WqV0T-44" value="" style="endArrow=none;html=1;rounded=0;" parent="1" source="hlcQiqIEzfI4XioGV9WH-76" target="o3ukNVQwn3zCSA9WqV0T-43" edge="1">
          <mxGeometry width="50" height="50" relative="1" as="geometry">
            <mxPoint x="652" y="505" as="sourcePoint" />
            <mxPoint x="647" y="530" as="targetPoint" />
          </mxGeometry>
        </mxCell>
        <mxCell id="o3ukNVQwn3zCSA9WqV0T-45" value="" style="endArrow=none;html=1;rounded=0;" parent="1" source="hlcQiqIEzfI4XioGV9WH-76" target="o3ukNVQwn3zCSA9WqV0T-42" edge="1">
          <mxGeometry width="50" height="50" relative="1" as="geometry">
            <mxPoint x="675" y="505" as="sourcePoint" />
            <mxPoint x="705" y="526" as="targetPoint" />
          </mxGeometry>
        </mxCell>
        <mxCell id="o3ukNVQwn3zCSA9WqV0T-48" value="Sponsor_ID" style="ellipse;whiteSpace=wrap;html=1;fillColor=#FF0000;strokeColor=#B85450;fontStyle=5" parent="1" vertex="1">
          <mxGeometry x="645" y="281" width="70" height="30" as="geometry" />
        </mxCell>
        <mxCell id="o3ukNVQwn3zCSA9WqV0T-49" value="Logo URL" style="ellipse;whiteSpace=wrap;html=1;fillColor=#f8cecc;strokeColor=#b85450;fontStyle=0" parent="1" vertex="1">
          <mxGeometry x="727.5" y="246" width="60" height="35" as="geometry" />
        </mxCell>
        <mxCell id="o3ukNVQwn3zCSA9WqV0T-50" value="Website URL" style="ellipse;whiteSpace=wrap;html=1;fillColor=#f8cecc;strokeColor=#b85450;fontStyle=0" parent="1" vertex="1">
          <mxGeometry x="792.5" y="270" width="72.5" height="35" as="geometry" />
        </mxCell>
        <mxCell id="o3ukNVQwn3zCSA9WqV0T-51" value="" style="endArrow=none;html=1;rounded=0;" parent="1" source="hlcQiqIEzfI4XioGV9WH-83" target="o3ukNVQwn3zCSA9WqV0T-48" edge="1">
          <mxGeometry width="50" height="50" relative="1" as="geometry">
            <mxPoint x="662" y="478.25" as="sourcePoint" />
            <mxPoint x="688" y="402" as="targetPoint" />
          </mxGeometry>
        </mxCell>
        <mxCell id="o3ukNVQwn3zCSA9WqV0T-52" value="" style="endArrow=none;html=1;rounded=0;" parent="1" source="hlcQiqIEzfI4XioGV9WH-83" target="o3ukNVQwn3zCSA9WqV0T-49" edge="1">
          <mxGeometry width="50" height="50" relative="1" as="geometry">
            <mxPoint x="672" y="488.25" as="sourcePoint" />
            <mxPoint x="698" y="412" as="targetPoint" />
          </mxGeometry>
        </mxCell>
        <mxCell id="o3ukNVQwn3zCSA9WqV0T-53" value="" style="endArrow=none;html=1;rounded=0;" parent="1" source="hlcQiqIEzfI4XioGV9WH-83" target="o3ukNVQwn3zCSA9WqV0T-50" edge="1">
          <mxGeometry width="50" height="50" relative="1" as="geometry">
            <mxPoint x="795" y="412.25" as="sourcePoint" />
            <mxPoint x="821" y="336" as="targetPoint" />
          </mxGeometry>
        </mxCell>
        <mxCell id="P71CSQNMI23JfF5rygRe-2" value="End_Date" style="ellipse;whiteSpace=wrap;html=1;fillColor=#f8cecc;strokeColor=#b85450;fontStyle=0" vertex="1" parent="1">
          <mxGeometry x="37.5" y="415" width="60" height="35" as="geometry" />
        </mxCell>
        <mxCell id="P71CSQNMI23JfF5rygRe-3" value="" style="endArrow=none;html=1;rounded=0;" edge="1" parent="1" target="P71CSQNMI23JfF5rygRe-2" source="hlcQiqIEzfI4XioGV9WH-173">
          <mxGeometry width="50" height="50" relative="1" as="geometry">
            <mxPoint x="23.75" y="365" as="sourcePoint" />
            <mxPoint x="127.75" y="345" as="targetPoint" />
          </mxGeometry>
        </mxCell>
        <mxCell id="P71CSQNMI23JfF5rygRe-4" value="Start_Date" style="ellipse;whiteSpace=wrap;html=1;fillColor=#f8cecc;strokeColor=#b85450;fontStyle=0" vertex="1" parent="1">
          <mxGeometry x="105" y="433.75" width="60" height="35" as="geometry" />
        </mxCell>
        <mxCell id="P71CSQNMI23JfF5rygRe-5" value="" style="endArrow=none;html=1;rounded=0;" edge="1" parent="1" target="P71CSQNMI23JfF5rygRe-4" source="hlcQiqIEzfI4XioGV9WH-173">
          <mxGeometry width="50" height="50" relative="1" as="geometry">
            <mxPoint x="17.5" y="331" as="sourcePoint" />
            <mxPoint x="121.5" y="311" as="targetPoint" />
          </mxGeometry>
        </mxCell>
        <mxCell id="P71CSQNMI23JfF5rygRe-7" value="Enrollment Date" style="ellipse;whiteSpace=wrap;html=1;fillColor=#fff2cc;strokeColor=#d6b656;fontStyle=0" vertex="1" parent="1">
          <mxGeometry x="-35" y="200" width="75" height="40" as="geometry" />
        </mxCell>
        <mxCell id="P71CSQNMI23JfF5rygRe-8" value="" style="endArrow=none;html=1;rounded=0;" edge="1" parent="1" source="hlcQiqIEzfI4XioGV9WH-163" target="P71CSQNMI23JfF5rygRe-7">
          <mxGeometry width="50" height="50" relative="1" as="geometry">
            <mxPoint x="260" y="276" as="sourcePoint" />
            <mxPoint x="140" y="275" as="targetPoint" />
          </mxGeometry>
        </mxCell>
        <mxCell id="P71CSQNMI23JfF5rygRe-11" value="Complex Name" style="ellipse;whiteSpace=wrap;html=1;fillColor=#f8cecc;strokeColor=#b85450;fontStyle=0" vertex="1" parent="1">
          <mxGeometry x="40" y="791.25" width="65" height="30" as="geometry" />
        </mxCell>
        <mxCell id="P71CSQNMI23JfF5rygRe-12" value="" style="endArrow=none;html=1;rounded=0;" edge="1" parent="1" target="P71CSQNMI23JfF5rygRe-11" source="hlcQiqIEzfI4XioGV9WH-1">
          <mxGeometry width="50" height="50" relative="1" as="geometry">
            <mxPoint x="115.5" y="872.0000000000002" as="sourcePoint" />
            <mxPoint x="205" y="816.5" as="targetPoint" />
          </mxGeometry>
        </mxCell>
        <mxCell id="P71CSQNMI23JfF5rygRe-13" value="Course Name" style="ellipse;whiteSpace=wrap;html=1;fillColor=#f8cecc;strokeColor=#b85450;fontStyle=0" vertex="1" parent="1">
          <mxGeometry x="182.5" y="403.75" width="60" height="35" as="geometry" />
        </mxCell>
        <mxCell id="P71CSQNMI23JfF5rygRe-14" value="" style="endArrow=none;html=1;rounded=0;" edge="1" parent="1" source="hlcQiqIEzfI4XioGV9WH-173" target="P71CSQNMI23JfF5rygRe-13">
          <mxGeometry width="50" height="50" relative="1" as="geometry">
            <mxPoint x="141" y="410" as="sourcePoint" />
            <mxPoint x="144" y="444" as="targetPoint" />
          </mxGeometry>
        </mxCell>
        <mxCell id="P71CSQNMI23JfF5rygRe-16" value="" style="endArrow=none;dashed=1;html=1;rounded=0;exitX=0.059;exitY=0.691;exitDx=0;exitDy=0;exitPerimeter=0;entryX=0.936;entryY=0.699;entryDx=0;entryDy=0;entryPerimeter=0;" edge="1" parent="1" source="LpjfnR9nURVxCJBzHhJD-48">
          <mxGeometry width="50" height="50" relative="1" as="geometry">
            <mxPoint x="-216" y="476.5152702702702" as="sourcePoint" />
            <mxPoint x="-164" y="475.70527027027026" as="targetPoint" />
          </mxGeometry>
        </mxCell>
      </root>
    </mxGraphModel>
  </diagram>
</mxfile>
